<?xml version="1.0" encoding="utf-8"?>
<svg width="60px" height="40px" viewBox="0 0 60 40" version="1.1" xmlns="http://www.w3.org/2000/svg" xmlns:bx="https://boxy-svg.com">
  <defs>
    <bx:guide x="34.253" y="12.978" angle="0"/>
    <bx:guide x="36.644" y="12.991" angle="90"/>
    <bx:guide x="54.678" y="12.98" angle="0"/>
    <bx:guide x="54.003" y="23.017" angle="0"/>
  </defs>
  <title>icons/editor/element-style-2</title>
  <g id="icons/editor/element-style-2" stroke="none" stroke-width="1" fill="none" fill-rule="evenodd">
    <path d="M 29 8 C 29.552 8 30 8.448 30 9 L 30 31 C 30 31.552 29.552 32 29 32 L 7 32 C 6.448 32 6 31.552 6 31 L 6 9 C 6 8.448 6.448 8 7 8 L 29 8 Z M 28.5 9.5 L 7.5 9.5 L 7.5 30.5 L 28.5 30.5 L 28.5 9.5 Z M 54.003 27 C 54.555 27 54.678 27.423 54.678 27.975 C 54.678 28.527 54.555 29 54.003 29 L 35 29 C 34.448 29 34.253 28.56 34.253 28.008 C 34.253 27.456 34.448 27 35 27 L 54.003 27 Z M 54 22 C 54.552 22 54.678 22.448 54.678 23 C 54.678 23.552 54.552 24 54 24 L 35 24 C 34.448 24 34.253 23.552 34.253 23 C 34.253 22.448 34.448 22 35 22 L 54 22 Z M 54 17 C 54.552 17 54.678 17.448 54.678 18 C 54.678 18.552 54.552 19 54 19 L 35 19 C 34.448 19 34.253 18.544 34.253 17.992 C 34.253 17.44 34.448 17 35 17 L 54 17 Z M 54 12 C 54.552 12 54.678 12.439 54.678 12.991 C 54.678 13.543 54.552 14 54 14 L 35 14 C 34.448 14 34.261 13.543 34.261 12.991 C 34.261 12.439 34.448 12 35 12 L 54 12 Z" id="Combined-Shape" fill="#8492A6"/>
  </g>
</svg>