<?xml version="1.0" encoding="utf-8"?>
<svg width="60px" height="40px" viewBox="0 0 60 40" version="1.1" xmlns="http://www.w3.org/2000/svg" xmlns:bx="https://boxy-svg.com">
  <defs>
    <bx:guide x="19.009" y="27.864" angle="0"/>
    <bx:guide x="18" y="26.966" angle="0"/>
    <bx:guide x="14.663" y="10.026" angle="90"/>
    <bx:guide x="4.998" y="7.384" angle="0"/>
    <bx:guide x="2.721" y="21.782" angle="0"/>
    <bx:guide x="18.283" y="21.416" angle="0"/>
    <bx:guide x="55.053" y="14.827" angle="0"/>
    <path id="path-0" d="M 2.946 19.097 C 5.878 19.15 8.326 19.692 10.237 20.511 C 10.972 20.839 10.847 21.185 10.847 20.4 C 10.847 19.19 13.125 19.722 13.703 19.818 C 13.758 20.504 13.784 20.985 13.508 21.537 L 13.453 21.759 C 13.304 22.28 13.098 23.084 12.732 23.45" style="fill: none;"/>
    <bx:guide x="20.634" y="30.003" angle="90"/>
    <bx:guide x="16.775" y="11.094" angle="90"/>
  </defs>
  <title>icons/editor/element-style-3</title>
  <path style="fill: none; paint-order: stroke; stroke-width: 1.5px; stroke: rgb(132, 146, 166);" d="M 5.714 25.123 L 12.85 18.701 L 19.85 25.955 L 17.451 23.299 L 21.509 19.536 L 27.827 25.966"/>
  <path style="fill: none; stroke: rgb(132, 146, 166); stroke-width: 1.5px;" d="M 17.639 19.193 C 19.679 19.197 20.926 17.003 19.915 15.232 C 18.895 13.459 16.351 13.459 15.33 15.232 C 14.389 16.865 15.402 18.943 17.268 19.193 C 17.469 19.186 17.546 19.218 17.639 19.193 Z"/>
  <rect x="5.717" y="11.849" width="22.188" height="16.322" style="fill: none; stroke-width: 1.5px; paint-order: stroke; stroke-miterlimit: 50; stroke-linecap: square; stroke: rgb(132, 146, 166);"/>
  <path style="fill: none; paint-order: stroke; stroke-width: 1.5px; stroke: rgb(132, 146, 166);" d="M 32.13 25.098 L 39.266 18.676 L 46.266 25.93 L 43.867 23.274 L 47.925 19.511 L 54.243 25.941"/>
  <path style="fill: none; stroke: rgb(132, 146, 166); stroke-width: 1.5px;" d="M 44.055 19.168 C 46.095 19.172 47.342 16.978 46.331 15.207 C 45.311 13.434 42.767 13.434 41.746 15.207 C 40.805 16.84 41.818 18.918 43.684 19.168 C 43.885 19.161 43.962 19.193 44.055 19.168 Z"/>
  <rect x="32.133" y="11.824" width="22.188" height="16.322" style="fill: none; stroke-width: 1.5px; paint-order: stroke; stroke-miterlimit: 50; stroke-linecap: square; stroke: rgb(132, 146, 166);"/>
</svg>