<?xml version="1.0" encoding="utf-8"?>
<svg width="60px" height="40px" viewBox="0 0 60 40" version="1.1" xmlns="http://www.w3.org/2000/svg" xmlns:bx="https://boxy-svg.com">
  <defs>
    <bx:guide x="10.141" y="14.364" angle="0"/>
    <bx:guide x="16.123" y="14.421" angle="0"/>
    <bx:guide x="27.007" y="13.035" angle="0"/>
    <bx:guide x="32.998" y="14.952" angle="0"/>
    <bx:guide x="43.874" y="12.915" angle="0"/>
    <bx:guide x="49.882" y="13.556" angle="0"/>
    <bx:guide x="6.262" y="20.712" angle="0"/>
    <bx:guide x="53.739" y="21.428" angle="0"/>
  </defs>
  <title>icons/editor/element-divider</title>
  <g id="icons/editor/element-divider" stroke="none" stroke-width="1" fill="none" fill-rule="evenodd">
    <path d="M 15.762 27.106 C 16.033 27.106 16.122 27.302 16.123 27.546 C 16.124 27.789 16.036 27.987 15.765 27.988 L 10.493 28.004 C 10.221 28.005 10.142 27.808 10.141 27.565 C 10.14 27.321 10.218 27.123 10.489 27.122 L 15.762 27.106 Z M 32.635 27.055 C 32.906 27.055 32.997 27.251 32.998 27.495 C 32.999 27.738 32.909 27.936 32.638 27.937 L 27.365 27.953 C 27.094 27.954 27.008 27.757 27.007 27.514 C 27.006 27.27 27.091 27.072 27.362 27.071 L 32.635 27.055 Z M 49.507 27.004 C 49.779 27.003 49.881 27.2 49.882 27.444 C 49.883 27.687 49.782 27.885 49.511 27.886 L 44.238 27.902 C 43.967 27.903 43.875 27.706 43.874 27.463 C 43.873 27.219 43.964 27.021 44.235 27.02 L 49.507 27.004 Z M 53 19 C 53.552 19 53.739 19.448 53.739 20 C 53.739 20.552 53.552 21 53 21 L 7 21 C 6.448 21 6.262 20.552 6.262 20 C 6.262 19.448 6.448 19 7 19 L 53 19 Z M 15.762 12.102 C 16.033 12.101 16.122 12.298 16.123 12.542 C 16.124 12.785 16.036 12.983 15.765 12.984 L 10.493 13 C 10.221 13.001 10.142 12.804 10.141 12.561 C 10.14 12.317 10.218 12.119 10.489 12.118 L 15.762 12.102 Z M 32.635 12.051 C 32.906 12.05 32.997 12.247 32.998 12.491 C 32.999 12.734 32.909 12.932 32.638 12.933 L 27.365 12.949 C 27.094 12.95 27.008 12.753 27.007 12.509 C 27.006 12.266 27.091 12.068 27.362 12.067 L 32.635 12.051 Z M 49.507 12 C 49.779 11.999 49.881 12.196 49.882 12.439 C 49.883 12.683 49.782 12.881 49.511 12.882 L 44.238 12.898 C 43.967 12.899 43.875 12.702 43.874 12.458 C 43.873 12.215 43.964 12.017 44.235 12.016 L 49.507 12 Z" id="Combined-Shape" fill="#8492A6"/>
  </g>
</svg>