<?xml version="1.0" encoding="utf-8"?>
<svg width="60px" height="40px" viewBox="0 0 60 40" version="1.1" xmlns="http://www.w3.org/2000/svg" xmlns:bx="https://boxy-svg.com">
  <defs>
    <bx:guide x="54.002" y="17.009" angle="0"/>
    <bx:guide x="53.527" y="11.415" angle="90"/>
    <bx:guide x="5.92" y="15.586" angle="0"/>
    <bx:guide x="34.263" y="11.35" angle="0"/>
    <bx:guide x="37.044" y="13.649" angle="90"/>
    <bx:guide x="35.877" y="11.983" angle="90"/>
    <bx:guide x="38.754" y="30.811" angle="90"/>
    <bx:guide x="44.004" y="29.009" angle="90"/>
    <bx:guide x="31.038" y="20.047" angle="90"/>
    <linearGradient gradientUnits="userSpaceOnUse" x1="2373.948" y1="2302" x2="2373.948" y2="5118.823" id="gradient-0">
      <stop offset="0" style="stop-color: rgb(14, 92, 128)"/>
      <stop offset="1" style="stop-color: rgb(121, 192, 218) "/>
    </linearGradient>
    <linearGradient gradientUnits="userSpaceOnUse" x1="455" y1="2110" x2="455" y2="3910" id="gradient-1">
      <stop offset="0" style="stop-color: rgb(14, 92, 128)"/>
      <stop offset="1" style="stop-color: rgb(121, 192, 218) "/>
    </linearGradient>
    <linearGradient gradientUnits="userSpaceOnUse" x1="2745.833" y1="0.677" x2="2745.833" y2="3006.697" id="gradient-2">
      <stop offset="0" style="stop-color: rgb(14, 92, 128)"/>
      <stop offset="1" style="stop-color: rgb(121, 192, 218) "/>
    </linearGradient>
    <linearGradient gradientUnits="userSpaceOnUse" x1="4665" y1="1210" x2="4665" y2="3010" id="gradient-3">
      <stop offset="0" style="stop-color: rgb(14, 92, 128)"/>
      <stop offset="1" style="stop-color: rgb(121, 192, 218) "/>
    </linearGradient>
    <linearGradient gradientUnits="userSpaceOnUse" x1="2560" y1="4.25" x2="2560" y2="5115.41" id="gradient-4">
      <stop offset="0" style="stop-color: rgb(14, 92, 128);"/>
      <stop offset="1" style="stop-color: rgb(121, 192, 218);"/>
    </linearGradient>
    <linearGradient gradientUnits="userSpaceOnUse" x1="3310" y1="3910" x2="3310" y2="4210" id="gradient-5">
      <stop offset="0" style="stop-color: rgb(14, 92, 128);"/>
      <stop offset="1" style="stop-color: rgb(121, 192, 218);"/>
    </linearGradient>
    <linearGradient gradientUnits="userSpaceOnUse" x1="3910" y1="3910" x2="3910" y2="4210" id="gradient-6">
      <stop offset="0" style="stop-color: rgb(14, 92, 128);"/>
      <stop offset="1" style="stop-color: rgb(121, 192, 218);"/>
    </linearGradient>
    <linearGradient gradientUnits="userSpaceOnUse" x1="3609.5" y1="3015.934" x2="3609.5" y2="3530" id="gradient-7">
      <stop offset="0" style="stop-color: rgb(14, 92, 128);"/>
      <stop offset="1" style="stop-color: rgb(121, 192, 218);"/>
    </linearGradient>
    <linearGradient gradientUnits="userSpaceOnUse" x1="1210" y1="2710" x2="1210" y2="3010" id="gradient-8">
      <stop offset="0" style="stop-color: rgb(14, 92, 128);"/>
      <stop offset="1" style="stop-color: rgb(121, 192, 218);"/>
    </linearGradient>
    <linearGradient gradientUnits="userSpaceOnUse" x1="1810" y1="2710" x2="1810" y2="3010" id="gradient-9">
      <stop offset="0" style="stop-color: rgb(14, 92, 128);"/>
      <stop offset="1" style="stop-color: rgb(121, 192, 218);"/>
    </linearGradient>
    <linearGradient gradientUnits="userSpaceOnUse" x1="1510" y1="2110" x2="1510" y2="2410" id="gradient-10">
      <stop offset="0" style="stop-color: rgb(14, 92, 128);"/>
      <stop offset="1" style="stop-color: rgb(121, 192, 218);"/>
    </linearGradient>
    <linearGradient gradientUnits="userSpaceOnUse" x1="3310" y1="1510" x2="3310" y2="1810" id="gradient-11">
      <stop offset="0" style="stop-color: rgb(14, 92, 128);"/>
      <stop offset="1" style="stop-color: rgb(121, 192, 218);"/>
    </linearGradient>
    <linearGradient gradientUnits="userSpaceOnUse" x1="3910" y1="1510" x2="3910" y2="1810" id="gradient-12">
      <stop offset="0" style="stop-color: rgb(14, 92, 128);"/>
      <stop offset="1" style="stop-color: rgb(121, 192, 218);"/>
    </linearGradient>
    <linearGradient gradientUnits="userSpaceOnUse" x1="3609.5" y1="690" x2="3609.5" y2="1208.437" id="gradient-13">
      <stop offset="0" style="stop-color: rgb(14, 92, 128);"/>
      <stop offset="1" style="stop-color: rgb(121, 192, 218);"/>
    </linearGradient>
  </defs>
  <title>icons/editor/element-text</title>
  <g transform="matrix(0.003929, 0, 0, -0.003929, 5.92, 30.188337)" fill="#000000" stroke="none" style="">
    <path d="M1888 5099 c-23 -12 -46 -35 -58 -59 -18 -36 -20 -58 -20 -288 0 -266 -7 -330 -47 -432 -81 -204 -266 -362 -458 -392 -39 -6 -76 -12 -82 -14 -10 -3 -13 -162 -13 -754 l0 -750 51 0 c38 0 58 -6 82 -24 18 -13 55 -37 83 -54 l51 -30 98 247 c133 333 157 385 220 466 102 133 242 224 425 277 34 10 150 13 465 13 453 0 497 -4 703 -60 48 -14 90 -21 93 -17 4 4 17 34 29 67 43 117 36 266 -19 374 -30 58 -116 146 -175 180 -91 52 -146 61 -388 61 l-218 0 0 265 c0 204 -4 284 -16 343 -61 294 -292 525 -586 586 -103 21 -174 20 -220 -5z" style="fill: url(#gradient-0);"/>
    <path d="M78 3889 c-23 -12 -46 -35 -58 -59 -20 -38 -20 -58 -20 -820 0 -763 0 -782 20 -820 13 -26 34 -47 60 -60 37 -19 58 -20 435 -20 l395 0 0 900 0 900 -397 0 c-376 -1 -400 -2 -435 -21z" style="fill: url(#gradient-1);"/>
    <path d="M2279 2996 c-62 -18 -130 -53 -175 -89 -87 -72 -103 -104 -314 -631 -180 -452 -202 -513 -207 -578 -17 -226 130 -427 348 -477 24 -6 142 -11 262 -11 l217 0 0 -265 c0 -204 4 -284 16 -343 61 -293 293 -525 586 -586 105 -22 170 -20 218 4 72 37 74 48 80 375 6 285 6 291 34 370 37 107 87 187 167 265 83 83 202 146 304 162 39 6 76 12 83 14 9 3 12 162 12 754 l0 750 -48 0 c-40 0 -58 7 -116 46 -153 103 -351 185 -545 226 -85 18 -139 21 -486 24 -301 2 -401 0 -436 -10z" style="fill: url(#gradient-2);"/>
    <path d="M4210 2110 l0 -900 395 0 c377 0 398 1 435 20 26 13 47 34 60 60 20 38 20 57 20 820 0 763 0 782 -20 820 -13 26 -34 47 -60 60 -37 19 -58 20 -435 20 l-395 0 0 -900z" style="fill: url(#gradient-3);"/>
  </g>
  <g transform="matrix(0.00501, 0, 0, -0.00501, 29.177233, 32.712173)" fill="#000000" stroke="none">
    <path d="M3436 5109 c-357 -49 -683 -240 -899 -528 -170 -225 -260 -477 -274 -768 -3 -68 -8 -123 -11 -123 -2 0 -30 16 -61 35 -374 227 -882 244 -1282 42 -138 -69 -228 -135 -349 -257 -203 -202 -318 -416 -377 -700 -24 -118 -24 -382 0 -500 55 -265 169 -486 347 -673 202 -213 437 -343 730 -404 106 -22 370 -24 480 -4 147 26 333 95 451 166 31 19 59 35 61 35 3 0 8 -55 11 -122 14 -292 104 -544 274 -770 200 -265 485 -443 823 -515 118 -25 382 -25 499 0 431 92 765 347 959 733 95 189 136 368 136 599 1 181 -11 263 -60 415 -100 311 -317 585 -596 751 -32 18 -58 36 -58 39 0 3 26 21 58 39 102 61 165 112 272 220 193 195 309 413 367 691 24 117 24 380 0 503 -110 550 -527 972 -1072 1083 -89 18 -339 26 -429 13z m320 -300 c413 -57 760 -370 871 -784 23 -89 26 -118 26 -265 0 -180 -10 -235 -72 -395 -94 -243 -333 -482 -576 -576 -160 -62 -215 -72 -395 -72 -137 0 -178 3 -243 21 -399 109 -670 381 -780 782 -16 62 -20 104 -20 240 0 147 3 176 26 265 80 299 281 547 552 683 191 96 401 130 611 101z m-2006 -1227 c198 -52 365 -146 501 -281 135 -135 226 -297 282 -501 29 -109 29 -371 0 -480 -56 -204 -147 -366 -282 -501 -135 -135 -297 -226 -501 -282 -109 -29 -371 -29 -480 0 -204 56 -366 147 -501 282 -386 387 -411 1000 -57 1421 153 182 404 323 638 359 98 15 311 6 400 -17z m1175 -983 c30 -17 55 -35 55 -39 0 -7 -103 -70 -115 -70 -3 0 -5 32 -5 70 0 39 2 70 5 70 3 0 30 -14 60 -31z m925 -217 c198 -52 365 -146 501 -281 135 -135 226 -297 282 -501 16 -62 20 -104 20 -240 0 -146 -3 -176 -26 -262 -176 -659 -891 -986 -1490 -682 -264 134 -465 385 -544 679 -23 89 -26 118 -26 265 0 136 4 178 20 240 56 203 147 366 282 500 155 156 372 266 586 300 93 14 308 4 395 -18z" style="fill: url(#gradient-4);"/>
    <path d="M3160 4060 l0 -150 150 0 150 0 0 150 0 150 -150 0 -150 0 0 -150z" style="fill: url(#gradient-5);"/>
    <path d="M3760 4060 l0 -150 150 0 150 0 0 150 0 150 -150 0 -150 0 0 -150z" style="fill: url(#gradient-6);"/>
    <path d="M3190 3519 c-8 -6 -63 -38 -122 -72 l-108 -63 34 -49 c86 -128 227 -232 390 -287 82 -29 103 -32 216 -32 132 -1 190 9 294 51 125 51 264 164 336 273 l29 44 -124 73 c-68 40 -128 73 -133 73 -5 0 -15 -12 -23 -26 -20 -38 -112 -119 -164 -144 -136 -66 -276 -65 -411 1 -54 27 -143 104 -163 143 -15 28 -27 31 -51 15z" style="fill: url(#gradient-7);"/>
    <path d="M1060 2860 l0 -150 150 0 150 0 0 150 0 150 -150 0 -150 0 0 -150z" style="fill: url(#gradient-8);"/>
    <path d="M1660 2860 l0 -150 150 0 150 0 0 150 0 150 -150 0 -150 0 0 -150z" style="fill: url(#gradient-9);"/>
    <path d="M910 2260 l0 -150 600 0 600 0 0 150 0 150 -600 0 -600 0 0 -150z" style="fill: url(#gradient-10);"/>
    <path d="M3160 1660 l0 -150 150 0 150 0 0 150 0 150 -150 0 -150 0 0 -150z" style="fill: url(#gradient-11);"/>
    <path d="M3760 1660 l0 -150 150 0 150 0 0 150 0 150 -150 0 -150 0 0 -150z" style="fill: url(#gradient-12);"/>
    <path d="M3484 1199 c-185 -31 -386 -159 -490 -313 l-34 -50 88 -51 c180 -106 172 -102 184 -80 20 38 123 130 171 154 137 66 276 67 412 1 52 -25 144 -106 164 -144 8 -14 18 -26 23 -26 5 0 65 33 133 73 l124 73 -33 50 c-79 117 -230 233 -363 279 -121 42 -257 54 -379 34z" style="fill: url(#gradient-13);"/>
  </g>
</svg>