<?xml version="1.0" encoding="utf-8"?>
<svg width="60px" height="40px" viewBox="0 0 60 40" version="1.1" xmlns="http://www.w3.org/2000/svg" xmlns:bx="https://vikasit.com">
  <title>icons/editor/element-text</title>
  <path d="M -12.954 -18.449 m -7.034 0 a 7.034 7.034 0 1 0 14.068 0 a 7.034 7.034 0 1 0 -14.068 0 Z M -12.954 -18.449 m -5 0 a 5 4.75 0 0 1 10 0 a 5 4.75 0 0 1 -10 0 Z" style="fill: rgb(132, 146, 166);" transform="matrix(-1, 0, 0, -1, 0, 0)" bx:shape="ring -12.954 -18.449 5 4.75 7.034 7.034 1@1f2873f2"/>
  <path d="M -46.968 -18.451 m -7.034 0 a 7.034 7.034 0 1 0 14.068 0 a 7.034 7.034 0 1 0 -14.068 0 Z M -46.968 -18.451 m -5 0 a 5 5 0 0 1 10 0 a 5 5 0 0 1 -10 0 Z" style="fill: rgb(132, 146, 166);" transform="matrix(-1, 0, 0, -1, 0, 0)" bx:shape="ring -46.968 -18.451 5 5 7.034 7.034 1@cb4beb0c"/>
  <path d="M -30.028 -18.449 m -7.034 0 a 7.034 7.034 0 1 0 14.068 0 a 7.034 7.034 0 1 0 -14.068 0 Z M -30.028 -18.449 m -5 0 a 5 5 0 0 1 10 0 a 5 5 0 0 1 -10 0 Z" style="fill: rgb(132, 146, 166);" transform="matrix(-1, 0, 0, -1, 0, 0)" bx:shape="ring -30.028 -18.449 5 5 7.034 7.034 1@bbecfffb"/>
  <rect x="5.92" y="29.009" width="14.072" height="1.802" style="fill: rgb(132, 146, 166);"/>
  <rect x="22.992" y="29.009" width="14.072" height="1.802" style="fill: rgb(132, 146, 166);"/>
  <rect x="39.925" y="29.009" width="14.072" height="1.802" style="fill: rgb(132, 146, 166);"/>
</svg>