<?xml version="1.0" encoding="utf-8"?>
<svg width="60px" height="40px" viewBox="0 0 60 40" version="1.1" xmlns="http://www.w3.org/2000/svg" xmlns:bx="https://boxy-svg.com">
  <defs>
    <bx:guide x="46.084" y="2.492" angle="90"/>
    <bx:guide x="47.509" y="5.667" angle="0"/>
    <bx:guide x="12.492" y="5.325" angle="0"/>
    <bx:guide x="20.83" y="37.51" angle="90"/>
    <bx:guide x="43.535" y="5.991" angle="90"/>
    <bx:guide x="44.01" y="8.15" angle="0"/>
    <bx:guide x="15.991" y="9.031" angle="0"/>
    <bx:guide x="20.674" y="16.014" angle="90"/>
    <bx:guide x="17.353" y="35.989" angle="90"/>
    <bx:guide x="14.005" y="29.934" angle="0"/>
    <bx:guide x="45.982" y="31.705" angle="0"/>
    <bx:guide x="44.605" y="4.002" angle="90"/>
    <linearGradient gradientUnits="userSpaceOnUse" x1="30" y1="2.492" x2="30" y2="37.51" id="gradient-0">
      <stop offset="0" style="stop-color: rgb(121, 192, 218);"/>
      <stop offset="1" style="stop-color: rgb(14, 92, 128);"/>
    </linearGradient>
  </defs>
  <title>icons/editor/element-header</title>
  <g id="icons/editor/element-header" stroke="none" stroke-width="1" fill="none" fill-rule="evenodd">
    <path d="M 46.125 2.492 C 47.506 2.492 47.509 2.502 47.509 3.883 L 47.509 36.11 C 47.509 37.491 47.506 37.51 46.125 37.51 L 13.875 37.51 C 12.494 37.51 12.492 37.489 12.492 36.108 L 12.492 3.878 C 12.492 2.497 12.486 2.492 13.867 2.492 L 46.125 2.492 Z M 45.425 4.002 L 14.558 4.002 C 14.006 4.002 14.005 4.006 14.005 4.558 L 14 35.426 C 14 35.978 13.997 35.989 14.549 35.989 L 45.425 35.989 C 45.977 35.989 45.982 35.977 45.982 35.425 L 45.982 4.558 C 45.982 4.006 45.977 4.002 45.425 4.002 Z M 43.45 5.991 C 44.002 5.991 44.01 5.998 44.01 6.55 L 44.01 15.45 C 44.01 16.002 44.019 16.014 43.467 16.014 L 16.55 16.014 C 15.998 16.014 15.991 16.01 15.991 15.458 L 15.991 6.525 C 15.991 5.973 15.998 5.991 16.55 5.991 L 43.45 5.991 Z" id="Combined-Shape" style="fill: url(#gradient-0);"/>
  </g>
</svg>