<?xml version="1.0" encoding="utf-8"?>
<svg width="60px" height="40px" viewBox="0 0 60 40" version="1.1" xmlns="http://www.w3.org/2000/svg" xmlns:bx="https://boxy-svg.com">
  <defs>
    <bx:guide x="12.995" y="11.893" angle="0"/>
    <bx:guide x="47.011" y="12.864" angle="0"/>
    <bx:guide x="13.206" y="10.704" angle="0"/>
    <bx:guide x="46.787" y="10.43" angle="0"/>
    <bx:guide x="46.005" y="23.887" angle="0"/>
  </defs>
  <title>icons/editor/element-text</title>
  <g id="icons/editor/element-text" stroke="none" stroke-width="1" fill="none" fill-rule="evenodd">
    <path d="M 46.005 29.438 C 46.557 29.438 46.787 29.885 46.787 30.438 C 46.787 30.95 46.476 31.45 45.979 31.431 L 46.005 31.438 L 14 31.438 C 13.448 31.438 13.206 30.99 13.206 30.438 C 13.206 29.925 13.386 29.502 13.883 29.444 L 14 29.438 L 46.005 29.438 Z M 46 24.438 C 46.552 24.438 46.787 24.872 46.787 25.425 C 46.787 25.937 46.614 26.373 46.117 26.431 L 46 26.438 L 14 26.438 C 13.448 26.438 13.206 25.99 13.206 25.438 C 13.206 24.925 13.386 24.502 13.883 24.444 L 14 24.438 L 46 24.438 Z M 46 19.438 C 46.552 19.438 46.787 19.859 46.787 20.412 C 46.787 20.924 46.614 21.373 46.117 21.431 L 46 21.438 L 14 21.438 C 13.448 21.438 13.206 20.99 13.206 20.438 C 13.206 19.925 13.386 19.502 13.883 19.444 L 14 19.438 L 46 19.438 Z M 46 14.438 C 46.552 14.438 46.787 14.885 46.787 15.438 C 46.787 15.95 46.614 16.373 46.117 16.431 L 46 16.438 L 14 16.438 C 13.448 16.438 13.206 15.938 13.206 15.386 C 13.206 14.873 13.386 14.502 13.883 14.444 L 14 14.438 L 46 14.438 Z M 46 9.438 C 46.552 9.438 46.787 9.885 46.787 10.438 C 46.787 10.95 46.614 11.373 46.117 11.431 L 46 11.438 L 14 11.438 C 13.448 11.438 13.206 10.99 13.206 10.438 C 13.206 9.925 13.386 9.502 13.883 9.444 L 14 9.438 L 46 9.438 Z" id="Combined-Shape" fill="#8492A6"/>
  </g>
</svg>