<?xml version="1.0" encoding="utf-8"?>
<svg width="60px" height="40px" viewBox="0 0 60 40" version="1.1" xmlns="http://www.w3.org/2000/svg" xmlns:bx="https://vikasit.com">
  <title>icons/editor/element-style-1</title>
  <g id="icons/editor/element-style-1" stroke="none" stroke-width="1" fill="none" fill-rule="evenodd">
    <path style="fill: none; paint-order: stroke; stroke-width: 1.5px; stroke: rgb(132, 146, 166);" d="M 15.947 21.17 L 23.022 15.287 L 33.324 23.464 L 29.793 20.625 L 35.16 15.912 L 44.211 22.919"></path>
    <path d="M 44.107 34 C 44.609 34 44.742 34.448 44.742 35 C 44.742 35.513 44.559 35.936 44.107 35.993 L 34.091 36 L 15.909 36 C 15.407 36 15.257 35.552 15.257 35 C 15.257 34.487 15.351 34.064 15.803 34.007 L 15.909 34 L 44.107 34 M 44.118 29 C 44.605 29 44.742 29.448 44.742 30 C 44.742 30.513 44.659 30.936 44.221 30.993 L 44.118 31 L 15.882 31 C 15.395 31 15.257 30.552 15.257 30 C 15.257 29.487 15.341 29.064 15.779 29.007 L 15.882 29 L 44.118 29 M 44.118 5 C 44.605 5 44.742 5.448 44.742 6 C 44.742 6.513 44.659 6.936 44.221 6.993 L 44.118 7 L 15.882 7 C 15.395 7 15.257 6.552 15.257 6 C 15.257 5.487 15.341 5.064 15.779 5.007 L 15.882 5 L 44.118 5 M 44.454 9.986 C 45.006 9.986 44.997 9.967 44.997 10.519 C 44.963 10.519 44.984 25.463 44.997 25.463 C 44.997 26.015 44.996 26.03 44.444 26.03 L 15.555 26.03 C 15.003 26.03 14.997 26.015 14.997 25.463 L 14.997 10.528 C 14.997 9.975 15.004 9.986 15.556 9.986 L 44.454 9.986 M 43.5 11.5 L 16.5 11.5 L 16.5 24.5 L 43.5 24.5 L 43.5 11.5" id="Combined-Shape" style="fill: rgb(132, 146, 166);"></path>
  </g>
</svg>