<?xml version="1.0" encoding="utf-8"?>
<svg viewBox="0 0 55 40" width="60px" height="40px" xmlns="http://www.w3.org/2000/svg" xmlns:bx="https://vikasit.com">
  <path d="M 26.522 26.869 L 26.522 13.163 M 47 8.997 C 47 8.134 46.005 7.435 44.778 7.435 L 9.221 7.435 C 7.995 7.435 7 8.134 7 8.997 L 7 30.856 C 7 31.719 7.995 32.417 9.221 32.417 L 44.778 32.417 C 46.005 32.417 47 31.719 47 30.856 L 47 19.927 L 47 8.997 Z" style="fill: none; stroke: rgb(132, 146, 166); stroke-width: 1.5px;"></path>
  <path d="M 6.963 26.869 L 26.467 26.869 L 46.963 26.869 M 46.893 8.997 C 46.893 8.134 45.901 7.435 44.676 7.435 L 9.211 7.435 C 7.988 7.435 6.996 8.134 6.996 8.997 L 6.996 30.856 C 6.996 31.719 7.988 32.417 9.211 32.417 L 44.676 32.417 C 45.901 32.417 46.893 31.719 46.893 30.856 L 46.893 19.927 L 46.893 8.997 Z" style="fill: none; stroke: rgb(132, 146, 166); stroke-width: 1.5px;"></path>
  <path d="M 46.963 13.163 L 26.467 13.163 L 6.963 13.124 M 46.893 8.997 C 46.893 8.134 45.901 7.435 44.676 7.435 L 9.211 7.435 C 7.988 7.435 6.996 8.134 6.996 8.997 L 6.996 30.856 C 6.996 31.719 7.988 32.417 9.211 32.417 L 44.676 32.417 C 45.901 32.417 46.893 31.719 46.893 30.856 L 46.893 19.927 L 46.893 8.997 Z" style="fill: none; stroke: rgb(132, 146, 166); stroke-width: 1.5px;"></path>
</svg>