<?xml version="1.0" encoding="utf-8"?>
<svg width="60px" height="40px" viewBox="0 0 60 40" version="1.1" xmlns="http://www.w3.org/2000/svg" xmlns:bx="https://boxy-svg.com">
  <defs>
    <bx:guide x="34.253" y="12.978" angle="0"/>
    <bx:guide x="36.644" y="12.991" angle="90"/>
    <bx:guide x="55.045" y="12.98" angle="0"/>
    <bx:guide x="54.003" y="23.017" angle="0"/>
    <bx:guide x="29.859" y="8.012" angle="90"/>
    <bx:guide x="30.001" y="9.937" angle="0"/>
    <bx:guide x="26.017" y="31.999" angle="90"/>
    <bx:guide x="6.006" y="29.468" angle="0"/>
    <bx:guide x="39.976" y="14.993" angle="0"/>
    <bx:guide x="4.982" y="6.824" angle="0"/>
  </defs>
  <title>icons/editor/element-style-2</title>
  <path style="fill: none; paint-order: stroke; stroke-width: 1.5px; stroke: rgb(132, 146, 166);" d="M 5.955 23.154 L 12.246 17.009 L 20.922 25.031 L 18.406 22.571 L 22.47 18.655 L 28.371 23.961"/>
  <g id="icons/editor/element-style-2" stroke="none" stroke-width="1" fill="none" fill-rule="evenodd" transform="matrix(1, 0, 0, 1, -1.024, 0)">
    <path d="M 29.458 8.012 C 30.001 8.012 30.001 8.012 30.001 8.592 L 30.001 31.45 C 30.001 32.002 29.994 31.999 29.442 31.999 L 6.559 31.999 C 6.007 31.999 6.006 31.986 6.006 31.434 L 6.006 8.575 C 6.006 8.023 6.006 8.012 6.558 8.012 L 29.458 8.012 Z M 28.5 9.5 L 7.5 9.5 L 7.5 30.5 L 28.5 30.5 L 28.5 9.5 Z" id="Combined-Shape" style="stroke-linecap: round; paint-order: fill; fill-rule: evenodd; filter: none; fill: rgb(132, 146, 166);"/>
  </g>
  <path style="fill: none; stroke-width: 1.5px; stroke: rgb(132, 146, 166);" d="M 17.559 17.738 C 19.62 17.74 20.885 15.534 19.856 13.748 C 18.827 11.963 16.251 11.961 15.219 13.745 C 14.266 15.395 15.291 17.484 17.179 17.738 C 17.383 17.729 17.462 17.762 17.559 17.738 Z"/>
  <path style="fill: none; paint-order: stroke; stroke-width: 1.5px; stroke: rgb(132, 146, 166);" d="M 32.023 23.154 L 38.314 17.009 L 46.99 25.031 L 44.474 22.571 L 48.538 18.655 L 54.439 23.961"/>
  <g id="g-1" stroke="none" stroke-width="1" fill="none" fill-rule="evenodd" transform="matrix(1, 0, 0, 1, 25.044001, 0)">
    <path d="M 29.458 8.012 C 30.001 8.012 30.001 8.012 30.001 8.592 L 30.001 31.45 C 30.001 32.002 29.994 31.999 29.442 31.999 L 6.559 31.999 C 6.007 31.999 6.006 31.986 6.006 31.434 L 6.006 8.575 C 6.006 8.023 6.006 8.012 6.558 8.012 L 29.458 8.012 Z M 28.5 9.5 L 7.5 9.5 L 7.5 30.5 L 28.5 30.5 L 28.5 9.5 Z" id="path-1" style="stroke-linecap: round; paint-order: fill; fill-rule: evenodd; filter: none; fill: rgb(132, 146, 166);"/>
  </g>
  <path style="fill: none; stroke-width: 1.5px; stroke: rgb(132, 146, 166);" d="M 43.627 17.738 C 45.688 17.74 46.953 15.534 45.924 13.748 C 44.895 11.963 42.319 11.961 41.287 13.745 C 40.334 15.395 41.359 17.484 43.247 17.738 C 43.451 17.729 43.53 17.762 43.627 17.738 Z"/>
</svg>