<?xml version="1.0" encoding="utf-8"?>
<svg width="60px" height="40px" viewBox="0 0 60 40" version="1.1" xmlns="http://www.w3.org/2000/svg" xmlns:bx="https://vikasit.com">
  <title>icons/editor/element-text</title>
  <g id="icons/editor/element-text" stroke="none" stroke-width="1" fill="none" fill-rule="evenodd" style="" transform="matrix(0.681929, 0, 0, 1.107431, 21.4433, 0.394953)">
    <path d="M 47.045 23.516 C 47.536 23.516 47.745 23.909 47.745 24.409 C 47.745 24.872 47.591 25.266 47.149 25.319 L 47.045 25.325 L 18.574 25.325 C 18.083 25.325 17.868 24.92 17.868 24.42 C 17.868 23.956 18.028 23.574 18.47 23.521 L 18.574 23.516 L 47.045 23.516 Z M 47.045 18.995 C 47.536 18.995 47.745 19.375 47.745 19.876 C 47.745 20.339 47.591 20.745 47.149 20.797 L 47.045 20.804 L 18.574 20.804 C 18.083 20.804 17.868 20.399 17.868 19.899 C 17.868 19.435 18.028 19.053 18.47 19 L 18.574 18.995 L 47.045 18.995 Z M 47.045 14.472 C 47.536 14.472 47.745 14.877 47.745 15.377 C 47.745 15.84 47.591 16.223 47.149 16.275 L 47.045 16.281 L 18.574 16.281 C 18.083 16.281 17.868 15.829 17.868 15.331 C 17.868 14.867 18.028 14.53 18.47 14.478 L 18.574 14.472 L 47.045 14.472 Z M 47.045 9.951 C 47.536 9.951 47.745 10.355 47.745 10.855 C 47.745 11.319 47.591 11.701 47.149 11.754 L 47.045 11.76 L 18.574 11.76 C 18.083 11.76 17.868 11.355 17.868 10.855 C 17.868 10.391 18.028 10.009 18.47 9.956 L 18.574 9.951 L 47.045 9.951 Z" id="Combined-Shape" style="fill: rgb(132, 146, 166);"/>
  </g>
  <path d="M 6.594 9.044 C 6.338 9.154 6.111 9.402 6.014 9.659 C 5.965 9.789 5.938 11.045 5.938 13.37 C 5.938 17.275 5.931 17.192 6.393 17.544 L 6.65 17.744 L 8.504 17.764 L 10.354 17.785 L 10.354 16.26 L 10.354 14.742 L 9.801 14.742 L 9.25 14.742 L 9.25 14.053 L 9.25 13.363 L 9.801 13.363 L 10.354 13.363 L 10.354 12.735 C 10.354 11.935 10.45 11.577 10.747 11.225 C 11.147 10.762 11.438 10.651 12.341 10.618 L 13.113 10.589 L 13.113 11.286 L 13.113 11.983 L 12.644 11.983 C 12.369 11.983 12.141 12.018 12.092 12.065 C 12.038 12.121 12.009 12.377 12.009 12.756 L 12.009 13.356 L 12.692 13.377 L 13.376 13.397 L 13.113 14.053 L 12.851 14.708 L 12.431 14.729 L 12.009 14.75 L 12.009 16.267 L 12.009 17.785 L 13.031 17.764 C 14.024 17.744 14.066 17.737 14.3 17.557 C 14.789 17.185 14.776 17.303 14.755 13.274 L 14.735 9.659 L 14.535 9.402 C 14.183 8.941 14.266 8.947 10.34 8.947 C 7.545 8.954 6.759 8.975 6.594 9.044 Z" style="fill: rgb(132, 146, 166);"/>
  <path d="M 24.745 9.733 C 24.233 9.887 23.749 10.344 23.545 10.884 C 23.496 10.996 23.46 11.277 23.46 11.494 C 23.46 11.958 23.447 11.965 22.759 11.825 C 21.713 11.607 20.625 11.017 19.937 10.294 C 19.818 10.175 19.706 10.077 19.677 10.077 C 19.572 10.077 19.446 10.548 19.452 10.947 C 19.46 11.424 19.606 11.804 19.965 12.211 L 20.176 12.449 L 19.951 12.4 C 19.825 12.365 19.649 12.322 19.565 12.295 C 19.369 12.232 19.362 12.302 19.509 12.786 C 19.642 13.242 20.042 13.706 20.485 13.909 C 20.821 14.063 20.829 14.078 20.632 14.085 C 20.52 14.092 20.351 14.085 20.267 14.078 C 19.768 14.043 20.604 15.074 21.215 15.257 C 21.37 15.305 21.545 15.341 21.614 15.341 C 21.825 15.341 21.622 15.509 21.138 15.741 C 20.59 16.008 20.14 16.12 19.572 16.12 C 19.326 16.126 19.123 16.141 19.123 16.155 C 19.123 16.176 19.355 16.295 19.636 16.429 C 22.801 17.923 26.36 16.091 27.026 12.618 C 27.082 12.33 27.125 11.965 27.125 11.804 C 27.125 11.537 27.166 11.466 27.552 11.067 C 27.79 10.828 27.967 10.618 27.946 10.596 C 27.932 10.582 27.84 10.589 27.749 10.624 C 27.658 10.66 27.454 10.709 27.306 10.736 L 27.032 10.793 L 27.258 10.603 C 27.447 10.442 27.755 9.965 27.755 9.831 C 27.755 9.81 27.637 9.853 27.497 9.93 C 27.349 10 27.102 10.097 26.942 10.146 C 26.675 10.224 26.64 10.217 26.344 10.021 C 25.84 9.677 25.285 9.579 24.745 9.733 Z" style="fill: rgb(132, 146, 166);"/>
  <path d="M 8.03 22.084 C 7.526 22.207 7.119 22.44 6.755 22.814 C 6.375 23.186 6.176 23.539 6.03 24.105 C 5.9 24.593 5.878 28.04 6.002 28.618 C 6.23 29.673 7.065 30.508 8.12 30.735 C 8.34 30.784 9.236 30.811 10.36 30.811 C 12.352 30.811 12.712 30.769 13.316 30.46 C 13.696 30.267 14.221 29.729 14.427 29.314 C 14.724 28.736 14.765 28.322 14.737 26.159 C 14.716 24.263 14.702 24.139 14.557 23.759 C 14.255 23.021 13.724 22.49 12.952 22.173 C 12.6 22.035 12.463 22.022 10.477 22.008 C 8.96 21.999 8.278 22.022 8.03 22.084 Z M 12.793 23.001 C 13.234 23.235 13.502 23.49 13.704 23.875 L 13.889 24.228 L 13.911 26.267 C 13.931 28.218 13.924 28.322 13.779 28.709 C 13.586 29.232 13.173 29.646 12.649 29.84 C 12.263 29.984 12.159 29.99 10.208 29.97 L 8.168 29.95 L 7.802 29.742 C 7.396 29.522 7.175 29.288 6.94 28.853 C 6.796 28.578 6.788 28.509 6.788 26.399 L 6.788 24.228 L 6.989 23.869 C 7.25 23.394 7.484 23.186 7.967 22.979 C 8.374 22.814 8.389 22.814 10.443 22.829 C 12.421 22.848 12.524 22.856 12.793 23.001 Z" style="fill: rgb(132, 146, 166);"/>
  <path d="M 9.67 24.317 C 8.918 24.585 8.443 25.088 8.222 25.842 C 8.022 26.544 8.25 27.413 8.788 27.95 C 9.628 28.784 11.049 28.784 11.891 27.95 C 12.725 27.108 12.725 25.688 11.891 24.848 C 11.325 24.29 10.381 24.062 9.67 24.317 Z M 10.939 25.185 C 11.704 25.544 11.938 26.536 11.416 27.246 C 11.243 27.482 10.663 27.777 10.375 27.777 C 9.836 27.777 9.381 27.488 9.133 26.993 C 8.773 26.275 9.036 25.524 9.752 25.185 C 10.188 24.978 10.49 24.978 10.939 25.185 Z" style="fill: rgb(132, 146, 166);"/>
  <path d="M 19.661 22.131 C 19.207 22.414 19.056 22.909 19.29 23.371 C 19.634 24.067 20.55 24.094 20.957 23.426 C 21.446 22.62 20.468 21.643 19.661 22.131 Z" style="fill: rgb(132, 146, 166);"/>
  <path d="M 19.165 27.78 L 19.165 30.811 L 20.164 30.811 L 21.164 30.811 L 21.164 27.78 L 21.164 24.748 L 20.164 24.748 L 19.165 24.748 L 19.165 27.78 Z" style="fill: rgb(132, 146, 166);"/>
  <path d="M 21.921 27.78 L 21.921 30.811 L 22.919 30.811 L 23.919 30.811 L 23.919 29.116 L 23.919 27.421 L 24.318 27.029 C 24.973 26.381 25.428 26.244 25.786 26.602 L 25.985 26.801 L 25.985 28.806 L 25.985 30.811 L 26.984 30.811 L 27.99 30.811 L 27.969 28.482 C 27.949 26.223 27.942 26.154 27.79 25.872 C 27.412 25.149 26.805 24.79 25.985 24.783 C 25.544 24.783 25.4 24.817 25.022 24.997 C 24.773 25.114 24.428 25.362 24.249 25.541 L 23.919 25.865 L 23.919 25.307 L 23.919 24.748 L 22.919 24.748 L 21.921 24.748 L 21.921 27.78 Z" style="fill: rgb(132, 146, 166);"/>
  <path d="M 12.348 23.6 C 12.109 23.749 12.029 24.009 12.152 24.251 C 12.333 24.617 12.815 24.631 13.028 24.28 C 13.285 23.858 12.771 23.344 12.348 23.6 Z" style="fill: rgb(132, 146, 166);"/>
</svg>