<?xml version="1.0" encoding="utf-8"?>
<svg width="60px" height="40px" viewBox="0 0 60 40" version="1.1" xmlns="http://www.w3.org/2000/svg" xmlns:bx="https://vikasit.com">
  <title>icons/editor/element-image</title>
  <g id="icons/editor/element-image" stroke="none" stroke-width="1" fill="none" fill-rule="evenodd">
    <path d="M 45.481 7.999 C 46.033 7.999 46.031 8.004 46.031 8.556 L 46.031 31.454 C 46.031 32.006 46.033 32.012 45.481 32.012 L 14.548 32.012 C 13.996 32.012 13.987 32.006 13.987 31.454 L 13.987 8.546 C 13.987 7.994 13.985 7.999 14.537 7.999 L 45.481 7.999 Z M 21.414 16.193 L 15.609 21.952 C 15.575 21.986 15.539 22.015 15.501 22.041 L 15.5 30.5 L 44.5 30.5 L 44.5 27.5 L 44.472 27.476 L 40.847 23.927 L 34.22 17.354 L 29.467 22.068 L 33.127 25.698 C 33.421 25.99 33.337 26.379 33.045 26.673 C 32.78 26.94 32.449 27.052 32.155 26.835 L 32.07 26.763 L 21.414 16.193 Z M 44.5 9.5 L 15.5 9.5 L 15.5 19.946 L 20.886 14.605 C 21.152 14.341 21.566 14.317 21.858 14.533 L 21.942 14.605 L 28.402 21.012 L 33.693 15.765 C 33.959 15.502 34.373 15.478 34.665 15.694 L 34.749 15.766 L 41.9 22.859 L 44.5 25.404 L 44.5 9.5 Z" id="Combined-Shape" style="fill: rgb(132, 146, 166);"/>
  </g>
  <path style="fill: none; stroke: rgb(132, 146, 166); stroke-width: 1.5px;" d="M 28.308 11.828 C 30.232 11.828 31.433 13.91 30.471 15.576 C 29.509 17.241 27.105 17.24 26.144 15.575 C 25.672 14.757 25.702 13.741 26.222 12.952 C 26.708 12.277 27.478 11.862 28.308 11.828 Z"/>
</svg>