<?xml version="1.0" encoding="utf-8"?>
<svg width="60px" height="40px" viewBox="0 0 60 40" version="1.1" xmlns="http://www.w3.org/2000/svg" xmlns:bx="https://vikasit.com">
  <defs>
    <linearGradient gradientUnits="userSpaceOnUse" x1="11.5" y1="6" x2="11.5" y2="33" id="gradient-1">
      <stop offset="0" style="stop-color: rgba(121, 192, 218, 1)"/>
      <stop offset="1" style="stop-color: rgb(14, 92, 128);"/>
    </linearGradient>
    <linearGradient gradientUnits="userSpaceOnUse" x1="17.941" y1="17.009" x2="17.941" y2="24.975" id="gradient-3" spreadMethod="pad" gradientTransform="matrix(1, 0, 0, 1, -2.280467, -7.657273)">
      <stop offset="0" style="stop-color: rgba(96, 177, 206, 1)"/>
      <stop offset="1" style="stop-color: rgba(47, 125, 153, 1)"/>
    </linearGradient>
    <linearGradient gradientUnits="userSpaceOnUse" x1="11.5" y1="6" x2="11.5" y2="33" id="gradient-6" gradientTransform="matrix(1, 0, 0, 1, 38.0392, 0.000437)">
      <stop offset="0" style="stop-color: rgba(121, 192, 218, 1)"/>
      <stop offset="1" style="stop-color: rgb(14, 92, 128);"/>
    </linearGradient>
    <linearGradient gradientUnits="userSpaceOnUse" x1="11.5" y1="6" x2="11.5" y2="33" id="gradient-5" gradientTransform="matrix(1, 0, 0, 1, 18.986998, 0.000001)">
      <stop offset="0" style="stop-color: rgba(121, 192, 218, 1)"/>
      <stop offset="1" style="stop-color: rgb(14, 92, 128);"/>
    </linearGradient>
    <linearGradient gradientUnits="userSpaceOnUse" x1="17.941" y1="17.009" x2="17.941" y2="24.975" id="gradient-2" spreadMethod="pad" gradientTransform="matrix(1, 0, 0, 1, 16.68893, -7.656325)">
      <stop offset="0" style="stop-color: rgba(96, 177, 206, 1)"/>
      <stop offset="1" style="stop-color: rgba(47, 125, 153, 1)"/>
    </linearGradient>
    <linearGradient gradientUnits="userSpaceOnUse" x1="17.941" y1="17.009" x2="17.941" y2="24.975" id="gradient-4" spreadMethod="pad" gradientTransform="matrix(1, 0, 0, 1, 35.83807, -7.656323)">
      <stop offset="0" style="stop-color: rgba(96, 177, 206, 1)"/>
      <stop offset="1" style="stop-color: rgba(47, 125, 153, 1)"/>
    </linearGradient>
  </defs>
  <title>icons/editor/element-style-3</title>
  <path style="stroke: url(#gradient-3); fill: none; paint-order: stroke; stroke-width: 1.5px;" d="M 4.552 15.863 L 8.718 11.281 L 13.609 15.713 L 11.972 13.962 L 14.155 11.927 L 18.42 15.596"/>
  <path style="fill: none; paint-order: stroke; stroke-width: 1.5px; stroke: url(#gradient-2);" d="M 23.521 15.864 L 27.687 11.282 L 32.578 15.714 L 30.941 13.963 L 33.124 11.928 L 37.389 15.597"/>
  <path style="fill: none; stroke: rgb(76, 156, 187); stroke-width: 1.5px;" d="M 30.646 11.387 C 31.801 11.39 32.506 10.148 31.933 9.146 C 31.357 8.142 29.917 8.142 29.338 9.146 C 28.806 10.07 29.38 11.246 30.436 11.387 C 30.55 11.384 30.592 11.402 30.646 11.387 Z"/>
  <path style="fill: none; paint-order: stroke; stroke-width: 1.5px; stroke: url(#gradient-4);" d="M 42.671 15.864 L 46.837 11.282 L 51.728 15.714 L 50.091 13.963 L 52.274 11.928 L 56.539 15.597"/>
  <path style="fill: none; stroke: rgb(76, 156, 187); stroke-width: 1.5px;" d="M 49.796 11.387 C 50.951 11.39 51.656 10.148 51.083 9.146 C 50.507 8.142 49.067 8.142 48.488 9.146 C 47.956 10.07 48.53 11.246 49.586 11.387 C 49.7 11.384 49.742 11.402 49.796 11.387 Z"/>
  <g id="icons/editor/element-style-3" stroke="none" stroke-width="1" fill="none" fill-rule="evenodd">
    <path d="M 18.283 31 C 18.835 31 19.009 31.448 19.009 32 C 19.009 32.552 18.835 33 18.283 33 L 4.764 33 C 4.212 33 4 32.552 4 32 C 4 31.448 4.212 31 4.764 31 L 18.283 31 Z M 18.283 26 C 18.835 26 19 26.448 19 27 C 19 27.552 18.835 28 18.283 28 L 4.764 28 C 4.212 28 4 27.552 4 27 C 4 26.448 4.212 26 4.764 26 L 18.283 26 Z M 18.283 21 C 18.835 21 19 21.448 19 22 C 19 22.552 18.835 23 18.283 23 L 4.764 23 C 4.212 23 4 22.552 4 22 C 4 21.448 4.212 21 4.764 21 L 18.283 21 Z M 18.454 5.989 C 19.006 5.989 19.009 5.985 19.009 6.537 L 19.009 17.426 C 19.009 17.978 19.006 17.989 18.454 17.989 L 4.528 17.989 C 3.976 17.989 3.975 17.987 3.975 17.435 L 3.975 6.537 C 3.975 5.985 3.976 5.989 4.528 5.989 L 18.454 5.989 Z M 17.5 7.5 L 5.5 7.5 L 5.5 16.5 L 17.5 16.5 L 17.5 7.5 Z" id="Combined-Shape-Copy" style="paint-order: fill; fill: url(#gradient-1);"/>
    <path d="M 56.322 31 C 56.874 31 57.048 31.448 57.048 32 C 57.048 32.552 56.874 33 56.322 33 L 42.803 33 C 42.251 33 42.039 32.552 42.039 32 C 42.039 31.448 42.251 31 42.803 31 L 56.322 31 Z M 56.322 26 C 56.874 26 57.039 26.448 57.039 27 C 57.039 27.552 56.874 28 56.322 28 L 42.803 28 C 42.251 28 42.039 27.552 42.039 27 C 42.039 26.448 42.251 26 42.803 26 L 56.322 26 Z M 56.322 21 C 56.874 21 57.039 21.448 57.039 22 C 57.039 22.552 56.874 23 56.322 23 L 42.803 23 C 42.251 23 42.039 22.552 42.039 22 C 42.039 21.448 42.251 21 42.803 21 L 56.322 21 Z M 56.493 5.989 C 57.045 5.989 57.048 5.985 57.048 6.537 L 57.048 17.426 C 57.048 17.978 57.045 17.989 56.493 17.989 L 42.567 17.989 C 42.015 17.989 42.014 17.987 42.014 17.435 L 42.014 6.537 C 42.014 5.985 42.015 5.989 42.567 5.989 L 56.493 5.989 Z M 55.539 7.5 L 43.539 7.5 L 43.539 16.5 L 55.539 16.5 L 55.539 7.5 Z" id="path-2" style="paint-order: fill; fill: url(#gradient-6);"/>
  </g>
  <path style="fill: none; stroke: rgb(76, 156, 187); stroke-width: 1.5px;" d="M 11.677 11.386 C 12.832 11.389 13.537 10.147 12.964 9.145 C 12.388 8.141 10.948 8.141 10.369 9.145 C 9.837 10.069 10.411 11.245 11.467 11.386 C 11.581 11.383 11.623 11.401 11.677 11.386 Z"/>
  <path d="M 37.27 31 C 37.822 31 37.996 31.448 37.996 32 C 37.996 32.552 37.822 33 37.27 33 L 23.751 33 C 23.199 33 22.987 32.552 22.987 32 C 22.987 31.448 23.199 31 23.751 31 L 37.27 31 Z M 37.27 26 C 37.822 26 37.987 26.448 37.987 27 C 37.987 27.552 37.822 28 37.27 28 L 23.751 28 C 23.199 28 22.987 27.552 22.987 27 C 22.987 26.448 23.199 26 23.751 26 L 37.27 26 Z M 37.27 21 C 37.822 21 37.987 21.448 37.987 22 C 37.987 22.552 37.822 23 37.27 23 L 23.751 23 C 23.199 23 22.987 22.552 22.987 22 C 22.987 21.448 23.199 21 23.751 21 L 37.27 21 Z M 37.441 5.989 C 37.993 5.989 37.996 5.985 37.996 6.537 L 37.996 17.426 C 37.996 17.978 37.993 17.989 37.441 17.989 L 23.515 17.989 C 22.963 17.989 22.962 17.987 22.962 17.435 L 22.962 6.537 C 22.962 5.985 22.963 5.989 23.515 5.989 L 37.441 5.989 Z M 36.487 7.5 L 24.487 7.5 L 24.487 16.5 L 36.487 16.5 L 36.487 7.5 Z" id="path-1" style="paint-order: fill; fill: url(#gradient-5);"/>
</svg>