<?xml version="1.0" encoding="utf-8"?>
<svg width="60px" height="40px" viewBox="0 0 60 40" version="1.1" xmlns="http://www.w3.org/2000/svg" xmlns:bx="https://boxy-svg.com">
  <defs>
    <bx:guide x="54.002" y="17.009" angle="0"/>
    <bx:guide x="53.527" y="11.415" angle="90"/>
    <bx:guide x="5.92" y="15.586" angle="0"/>
    <bx:guide x="34.263" y="11.35" angle="0"/>
    <bx:guide x="37.044" y="13.649" angle="90"/>
    <bx:guide x="35.877" y="11.983" angle="90"/>
    <bx:guide x="38.754" y="30.811" angle="90"/>
    <bx:guide x="44.004" y="29.009" angle="90"/>
    <bx:guide x="31.038" y="20.047" angle="90"/>
    <bx:guide x="19.992" y="18.4" angle="0"/>
    <bx:guide x="29.987" y="16.441" angle="0"/>
    <bx:guide x="22.992" y="18.595" angle="0"/>
    <bx:guide x="39.925" y="19.295" angle="0"/>
    <bx:guide x="25.029" y="18.585" angle="0"/>
    <linearGradient gradientUnits="userSpaceOnUse" x1="-12.954" y1="-25.485" x2="-12.954" y2="-11.413" id="gradient-0">
      <stop offset="0" style="stop-color: rgb(14, 92, 128);"/>
      <stop offset="1" style="stop-color: rgb(121, 192, 218);"/>
    </linearGradient>
    <linearGradient gradientUnits="userSpaceOnUse" x1="-46.968" y1="-25.485" x2="-46.968" y2="-11.417" id="gradient-1">
      <stop offset="0" style="stop-color: rgb(14, 92, 128);"/>
      <stop offset="1" style="stop-color: rgb(121, 192, 218);"/>
    </linearGradient>
    <linearGradient gradientUnits="userSpaceOnUse" x1="-30.028" y1="-25.483" x2="-30.028" y2="-11.415" id="gradient-2">
      <stop offset="0" style="stop-color: rgb(14, 92, 128);"/>
      <stop offset="1" style="stop-color: rgb(121, 192, 218);"/>
    </linearGradient>
    <linearGradient gradientUnits="userSpaceOnUse" x1="12.956" y1="29.009" x2="12.956" y2="30.811" id="gradient-3">
      <stop offset="0" style="stop-color: rgb(14, 92, 128);"/>
      <stop offset="1" style="stop-color: rgb(14, 92, 128);"/>
    </linearGradient>
    <linearGradient gradientUnits="userSpaceOnUse" x1="30.028" y1="29.009" x2="30.028" y2="30.811" id="gradient-4">
      <stop offset="0" style="stop-color: rgb(14, 92, 128);"/>
      <stop offset="1" style="stop-color: rgb(14, 92, 128);"/>
    </linearGradient>
    <linearGradient gradientUnits="userSpaceOnUse" x1="46.961" y1="29.009" x2="46.961" y2="30.811" id="gradient-5">
      <stop offset="0" style="stop-color: rgb(14, 92, 128);"/>
      <stop offset="1" style="stop-color: rgb(14, 92, 128);"/>
    </linearGradient>
  </defs>
  <title>icons/editor/element-text</title>
  <path d="M -12.954 -18.449 m -7.034 0 a 7.034 7.034 0 1 0 14.068 0 a 7.034 7.034 0 1 0 -14.068 0 Z M -12.954 -18.449 m -5 0 a 5 4.75 0 0 1 10 0 a 5 4.75 0 0 1 -10 0 Z" style="fill: url(#gradient-0);" transform="matrix(-1, 0, 0, -1, 0, 0)" bx:shape="ring -12.954 -18.449 5 4.75 7.034 7.034 1@1f2873f2"/>
  <path d="M -46.968 -18.451 m -7.034 0 a 7.034 7.034 0 1 0 14.068 0 a 7.034 7.034 0 1 0 -14.068 0 Z M -46.968 -18.451 m -5 0 a 5 5 0 0 1 10 0 a 5 5 0 0 1 -10 0 Z" style="fill: url(#gradient-1);" transform="matrix(-1, 0, 0, -1, 0, 0)" bx:shape="ring -46.968 -18.451 5 5 7.034 7.034 1@cb4beb0c"/>
  <path d="M -30.028 -18.449 m -7.034 0 a 7.034 7.034 0 1 0 14.068 0 a 7.034 7.034 0 1 0 -14.068 0 Z M -30.028 -18.449 m -5 0 a 5 5 0 0 1 10 0 a 5 5 0 0 1 -10 0 Z" style="fill: url(#gradient-2);" transform="matrix(-1, 0, 0, -1, 0, 0)" bx:shape="ring -30.028 -18.449 5 5 7.034 7.034 1@bbecfffb"/>
  <rect x="5.92" y="29.009" width="14.072" height="1.802" style="fill: url(#gradient-3);"/>
  <rect x="22.992" y="29.009" width="14.072" height="1.802" style="fill: url(#gradient-4);"/>
  <rect x="39.925" y="29.009" width="14.072" height="1.802" style="fill: url(#gradient-5);"/>
</svg>