<?xml version="1.0" encoding="utf-8"?>
<svg width="60px" height="40px" viewBox="0 0 60 40" version="1.1" xmlns="http://www.w3.org/2000/svg" xmlns:bx="https://vikasit.com">
  <title>icons/editor/element-text</title>
  <g id="icons/editor/element-text" stroke="none" stroke-width="1" fill="none" fill-rule="evenodd" style="" transform="matrix(0.681929, 0, 0, 1.107431, 21.4433, 0.394953)">
    <path d="M 47.045 23.516 C 47.536 23.516 47.745 23.909 47.745 24.409 C 47.745 24.872 47.591 25.266 47.149 25.319 L 47.045 25.325 L 18.574 25.325 C 18.083 25.325 17.868 24.92 17.868 24.42 C 17.868 23.956 18.028 23.574 18.47 23.521 L 18.574 23.516 L 47.045 23.516 Z M 47.045 18.995 C 47.536 18.995 47.745 19.375 47.745 19.876 C 47.745 20.339 47.591 20.745 47.149 20.797 L 47.045 20.804 L 18.574 20.804 C 18.083 20.804 17.868 20.399 17.868 19.899 C 17.868 19.435 18.028 19.053 18.47 19 L 18.574 18.995 L 47.045 18.995 Z M 47.045 14.472 C 47.536 14.472 47.745 14.877 47.745 15.377 C 47.745 15.84 47.591 16.223 47.149 16.275 L 47.045 16.281 L 18.574 16.281 C 18.083 16.281 17.868 15.829 17.868 15.331 C 17.868 14.867 18.028 14.53 18.47 14.478 L 18.574 14.472 L 47.045 14.472 Z M 47.045 9.951 C 47.536 9.951 47.745 10.355 47.745 10.855 C 47.745 11.319 47.591 11.701 47.149 11.754 L 47.045 11.76 L 18.574 11.76 C 18.083 11.76 17.868 11.355 17.868 10.855 C 17.868 10.391 18.028 10.009 18.47 9.956 L 18.574 9.951 L 47.045 9.951 Z" id="Combined-Shape" style="fill: rgb(132, 146, 166);"/>
  </g>
  <g transform="matrix(0.004267, 0, 0, -0.004267, 5.92, 30.813887)" fill="#000000" stroke="none" style="">
    <path d="M1888 5099 c-23 -12 -46 -35 -58 -59 -18 -36 -20 -58 -20 -288 0 -266 -7 -330 -47 -432 -81 -204 -266 -362 -458 -392 -39 -6 -76 -12 -82 -14 -10 -3 -13 -162 -13 -754 l0 -750 51 0 c38 0 58 -6 82 -24 18 -13 55 -37 83 -54 l51 -30 98 247 c133 333 157 385 220 466 102 133 242 224 425 277 34 10 150 13 465 13 453 0 497 -4 703 -60 48 -14 90 -21 93 -17 4 4 17 34 29 67 43 117 36 266 -19 374 -30 58 -116 146 -175 180 -91 52 -146 61 -388 61 l-218 0 0 265 c0 204 -4 284 -16 343 -61 294 -292 525 -586 586 -103 21 -174 20 -220 -5z" style="fill: rgb(132, 146, 166);"/>
    <path d="M78 3889 c-23 -12 -46 -35 -58 -59 -20 -38 -20 -58 -20 -820 0 -763 0 -782 20 -820 13 -26 34 -47 60 -60 37 -19 58 -20 435 -20 l395 0 0 900 0 900 -397 0 c-376 -1 -400 -2 -435 -21z" style="fill: rgb(132, 146, 166);"/>
    <path d="M2279 2996 c-62 -18 -130 -53 -175 -89 -87 -72 -103 -104 -314 -631 -180 -452 -202 -513 -207 -578 -17 -226 130 -427 348 -477 24 -6 142 -11 262 -11 l217 0 0 -265 c0 -204 4 -284 16 -343 61 -293 293 -525 586 -586 105 -22 170 -20 218 4 72 37 74 48 80 375 6 285 6 291 34 370 37 107 87 187 167 265 83 83 202 146 304 162 39 6 76 12 83 14 9 3 12 162 12 754 l0 750 -48 0 c-40 0 -58 7 -116 46 -153 103 -351 185 -545 226 -85 18 -139 21 -486 24 -301 2 -401 0 -436 -10z" style="fill: rgb(132, 146, 166);"/>
    <path d="M4210 2110 l0 -900 395 0 c377 0 398 1 435 20 26 13 47 34 60 60 20 38 20 57 20 820 0 763 0 782 -20 820 -13 26 -34 47 -60 60 -37 19 -58 20 -435 20 l-395 0 0 -900z" style="fill: rgb(132, 146, 166);"/>
  </g>
</svg>