<?xml version="1.0" encoding="utf-8"?>
<svg width="60px" height="40px" viewBox="0 0 60 40" version="1.1" xmlns="http://www.w3.org/2000/svg" xmlns:bx="https://vikasit.com">
  <defs>
    <linearGradient gradientUnits="userSpaceOnUse" x1="30.518" y1="9.951" x2="30.518" y2="25.325" id="gradient-0">
      <stop offset="0" style="stop-color: rgb(121, 192, 218);"/>
      <stop offset="1" style="stop-color: rgb(14, 92, 128);"/>
    </linearGradient>
    <linearGradient gradientUnits="userSpaceOnUse" x1="-8.114" y1="9.951" x2="-8.114" y2="25.325" id="gradient-1">
      <stop offset="0" style="stop-color: rgb(121, 192, 218);"/>
      <stop offset="1" style="stop-color: rgb(14, 92, 128);"/>
    </linearGradient>
  </defs>
  <title>icons/editor/element-text</title>
  <g id="icons/editor/element-text" stroke="none" stroke-width="1" fill="none" fill-rule="evenodd" style="" transform="matrix(0.681929, 0, 0, 1.107431, 22.639589, 0.963066)">
    <path d="M 44.756 23.516 C 45.247 23.516 45.456 23.909 45.456 24.409 C 45.456 24.872 45.302 25.266 44.86 25.319 L 44.756 25.325 L 16.285 25.325 C 15.794 25.325 15.579 24.92 15.579 24.42 C 15.579 23.956 15.739 23.574 16.181 23.521 L 16.285 23.516 L 44.756 23.516 Z M 44.756 18.995 C 45.247 18.995 45.456 19.375 45.456 19.876 C 45.456 20.339 45.302 20.745 44.86 20.797 L 44.756 20.804 L 16.285 20.804 C 15.794 20.804 15.579 20.399 15.579 19.899 C 15.579 19.435 15.739 19.053 16.181 19 L 16.285 18.995 L 44.756 18.995 Z M 44.756 14.472 C 45.247 14.472 45.456 14.877 45.456 15.377 C 45.456 15.84 45.302 16.223 44.86 16.275 L 44.756 16.281 L 16.285 16.281 C 15.794 16.281 15.579 15.829 15.579 15.331 C 15.579 14.867 15.739 14.53 16.181 14.478 L 16.285 14.472 L 44.756 14.472 Z M 44.756 9.951 C 45.247 9.951 45.456 10.355 45.456 10.855 C 45.456 11.319 45.302 11.701 44.86 11.754 L 44.756 11.76 L 16.285 11.76 C 15.794 11.76 15.579 11.355 15.579 10.855 C 15.579 10.391 15.739 10.009 16.181 9.956 L 16.285 9.951 L 44.756 9.951 Z" id="Combined-Shape" style="fill: url(#gradient-0);"/>
    <path d="M 6.125 23.516 C 6.616 23.516 6.825 23.909 6.825 24.409 C 6.825 24.872 6.671 25.266 6.229 25.319 L 6.125 25.325 L -22.346 25.325 C -22.837 25.325 -23.052 24.92 -23.052 24.42 C -23.052 23.956 -22.892 23.574 -22.45 23.521 L -22.346 23.516 L 6.125 23.516 Z M 6.125 18.995 C 6.616 18.995 6.825 19.375 6.825 19.876 C 6.825 20.339 6.671 20.745 6.229 20.797 L 6.125 20.804 L -22.346 20.804 C -22.837 20.804 -23.052 20.399 -23.052 19.899 C -23.052 19.435 -22.892 19.053 -22.45 19 L -22.346 18.995 L 6.125 18.995 Z M 6.125 14.472 C 6.616 14.472 6.825 14.877 6.825 15.377 C 6.825 15.84 6.671 16.223 6.229 16.275 L 6.125 16.281 L -22.346 16.281 C -22.837 16.281 -23.052 15.829 -23.052 15.331 C -23.052 14.867 -22.892 14.53 -22.45 14.478 L -22.346 14.472 L 6.125 14.472 Z M 6.125 9.951 C 6.616 9.951 6.825 10.355 6.825 10.855 C 6.825 11.319 6.671 11.701 6.229 11.754 L 6.125 11.76 L -22.346 11.76 C -22.837 11.76 -23.052 11.355 -23.052 10.855 C -23.052 10.391 -22.892 10.009 -22.45 9.956 L -22.346 9.951 L 6.125 9.951 Z" id="path-1" style="fill: url(#gradient-1);"/>
  </g>
</svg>