<?xml version="1.0" encoding="utf-8"?>
<svg width="60px" height="40px" viewBox="0 0 60 40" version="1.1" xmlns="http://www.w3.org/2000/svg" xmlns:bx="https://vikasit.com">
  <defs>
    <path id="path-0" d="M 2.946 19.097 C 5.878 19.15 8.326 19.692 10.237 20.511 C 10.972 20.839 10.847 21.185 10.847 20.4 C 10.847 19.19 13.125 19.722 13.703 19.818 C 13.758 20.504 13.784 20.985 13.508 21.537 L 13.453 21.759 C 13.304 22.28 13.098 23.084 12.732 23.45" style="fill: none;"/>
    <linearGradient gradientUnits="userSpaceOnUse" x1="16.811" y1="11.849" x2="16.811" y2="28.171" id="gradient-0">
      <stop offset="0" style="stop-color: rgb(121, 192, 218);"/>
      <stop offset="1" style="stop-color: rgb(14, 92, 128);"/>
    </linearGradient>
    <linearGradient gradientUnits="userSpaceOnUse" x1="17.623" y1="13.902" x2="17.623" y2="19.203" id="gradient-1">
      <stop offset="0" style="stop-color: rgb(121, 192, 218);"/>
      <stop offset="1" style="stop-color: rgb(121, 192, 218);"/>
    </linearGradient>
    <linearGradient gradientUnits="userSpaceOnUse" x1="16.77" y1="18.701" x2="16.77" y2="25.966" id="gradient-2">
      <stop offset="0" style="stop-color: rgb(121, 192, 218);"/>
      <stop offset="1" style="stop-color: rgb(14, 92, 128);"/>
    </linearGradient>
    <linearGradient gradientUnits="userSpaceOnUse" x1="43.227" y1="11.824" x2="43.227" y2="28.146" id="gradient-3">
      <stop offset="0" style="stop-color: rgb(121, 192, 218);"/>
      <stop offset="1" style="stop-color: rgb(14, 92, 128);"/>
    </linearGradient>
    <linearGradient gradientUnits="userSpaceOnUse" x1="44.039" y1="13.877" x2="44.039" y2="19.178" id="gradient-4">
      <stop offset="0" style="stop-color: rgb(121, 192, 218);"/>
      <stop offset="1" style="stop-color: rgb(121, 192, 218);"/>
    </linearGradient>
    <linearGradient gradientUnits="userSpaceOnUse" x1="43.187" y1="18.676" x2="43.187" y2="25.941" id="gradient-5">
      <stop offset="0" style="stop-color: rgb(121, 192, 218);"/>
      <stop offset="1" style="stop-color: rgb(14, 92, 128);"/>
    </linearGradient>
  </defs>
  <title>icons/editor/element-style-3</title>
  <path style="fill: none; paint-order: stroke; stroke-width: 1.5px; stroke: url(#gradient-2);" d="M 5.714 25.123 L 12.85 18.701 L 19.85 25.955 L 17.451 23.299 L 21.509 19.536 L 27.827 25.966"/>
  <path style="fill: none; stroke-width: 1.5px; stroke: url(#gradient-1);" d="M 17.639 19.193 C 19.679 19.197 20.926 17.003 19.915 15.232 C 18.895 13.459 16.351 13.459 15.33 15.232 C 14.389 16.865 15.402 18.943 17.268 19.193 C 17.469 19.186 17.546 19.218 17.639 19.193 Z"/>
  <rect x="5.717" y="11.849" width="22.188" height="16.322" style="fill: none; stroke-width: 1.5px; paint-order: stroke; stroke-miterlimit: 50; stroke-linecap: square; stroke: url(#gradient-0);"/>
  <path style="fill: none; paint-order: stroke; stroke-width: 1.5px; stroke: url(#gradient-5);" d="M 32.13 25.098 L 39.266 18.676 L 46.266 25.93 L 43.867 23.274 L 47.925 19.511 L 54.243 25.941"/>
  <path style="fill: none; stroke-width: 1.5px; stroke: url(#gradient-4);" d="M 44.055 19.168 C 46.095 19.172 47.342 16.978 46.331 15.207 C 45.311 13.434 42.767 13.434 41.746 15.207 C 40.805 16.84 41.818 18.918 43.684 19.168 C 43.885 19.161 43.962 19.193 44.055 19.168 Z"/>
  <rect x="32.133" y="11.824" width="22.188" height="16.322" style="fill: none; stroke-width: 1.5px; paint-order: stroke; stroke-miterlimit: 50; stroke-linecap: square; stroke: url(#gradient-3);"/>
</svg>