<?xml version="1.0" encoding="utf-8"?>
<svg width="60px" height="40px" viewBox="0 0 60 40" version="1.1" xmlns="http://www.w3.org/2000/svg" xmlns:bx="https://vikasit.com">
  <defs>
    <linearGradient gradientUnits="userSpaceOnUse" x1="20.971" y1="4.969" x2="20.971" y2="16.987" id="gradient-0">
      <stop offset="0" style="stop-color: rgb(121, 192, 218);"/>
      <stop offset="1" style="stop-color: rgb(14, 92, 128);"/>
    </linearGradient>
    <linearGradient gradientUnits="userSpaceOnUse" x1="38.9" y1="5.941" x2="38.9" y2="15.856" id="gradient-1">
      <stop offset="0" style="stop-color: rgb(121, 192, 218);"/>
      <stop offset="1" style="stop-color: rgb(14, 92, 128);"/>
    </linearGradient>
    <linearGradient gradientUnits="userSpaceOnUse" x1="20.946" y1="22.727" x2="20.946" y2="34.7" id="gradient-2">
      <stop offset="0" style="stop-color: rgb(121, 192, 218);"/>
      <stop offset="1" style="stop-color: rgb(14, 92, 128);"/>
    </linearGradient>
    <linearGradient gradientUnits="userSpaceOnUse" x1="20.947" y1="25.727" x2="20.947" y2="31.66" id="gradient-4">
      <stop offset="0" style="stop-color: rgb(121, 192, 218);"/>
      <stop offset="1" style="stop-color: rgb(14, 92, 128);"/>
    </linearGradient>
    <linearGradient gradientUnits="userSpaceOnUse" x1="34.275" y1="22.719" x2="34.275" y2="25.316" id="gradient-5">
      <stop offset="0" style="stop-color: rgb(121, 192, 218);"/>
      <stop offset="1" style="stop-color: rgb(121, 192, 218);"/>
    </linearGradient>
    <linearGradient gradientUnits="userSpaceOnUse" x1="34.316" y1="26.456" x2="34.316" y2="34.7" id="gradient-6">
      <stop offset="0" style="stop-color: rgb(121, 192, 218);"/>
      <stop offset="1" style="stop-color: rgb(14, 92, 128);"/>
    </linearGradient>
    <linearGradient gradientUnits="userSpaceOnUse" x1="40.832" y1="26.456" x2="40.832" y2="34.7" id="gradient-7">
      <stop offset="0" style="stop-color: rgb(121, 192, 218);"/>
      <stop offset="1" style="stop-color: rgb(14, 92, 128);"/>
    </linearGradient>
    <linearGradient gradientUnits="userSpaceOnUse" x1="34.275" y1="22.719" x2="34.275" y2="25.316" id="gradient-8" gradientTransform="matrix(0.525228, 0, 0, 0.525228, 6.022275, 12.867604)">
      <stop offset="0" style="stop-color: rgb(121, 192, 218);"/>
      <stop offset="1" style="stop-color: rgb(121, 192, 218);"/>
    </linearGradient>
  </defs>
  <title>icons/editor/element-social</title>
  <path d="M 15.862 5.1 C 15.515 5.25 15.206 5.588 15.074 5.936 C 15.008 6.113 14.971 7.821 14.971 10.983 C 14.971 16.293 14.962 16.18 15.59 16.659 L 15.938 16.931 L 18.46 16.959 L 20.975 16.987 L 20.975 14.913 L 20.975 12.849 L 20.224 12.849 L 19.474 12.849 L 19.474 11.912 L 19.474 10.973 L 20.224 10.973 L 20.975 10.973 L 20.975 10.12 C 20.975 9.032 21.107 8.544 21.51 8.065 C 22.054 7.436 22.449 7.286 23.677 7.24 L 24.727 7.202 L 24.727 8.149 L 24.727 9.097 L 24.09 9.097 C 23.715 9.097 23.405 9.144 23.339 9.209 C 23.265 9.285 23.227 9.632 23.227 10.148 L 23.227 10.964 L 24.155 10.992 L 25.085 11.02 L 24.727 11.912 L 24.371 12.803 L 23.799 12.831 L 23.227 12.859 L 23.227 14.923 L 23.227 16.987 L 24.615 16.959 C 25.966 16.931 26.023 16.921 26.342 16.677 C 27.007 16.171 26.989 16.331 26.961 10.852 L 26.933 5.936 L 26.661 5.588 C 26.182 4.96 26.295 4.969 20.957 4.969 C 17.156 4.978 16.087 5.006 15.862 5.1 Z" style="fill: url(#gradient-0);"/>
  <path d="M 40.545 6.037 C 39.849 6.247 39.19 6.868 38.913 7.602 C 38.846 7.755 38.798 8.137 38.798 8.433 C 38.798 9.063 38.78 9.072 37.844 8.882 C 36.421 8.585 34.943 7.784 34.007 6.8 C 33.845 6.638 33.692 6.505 33.654 6.505 C 33.511 6.505 33.339 7.145 33.348 7.688 C 33.358 8.337 33.558 8.853 34.045 9.407 L 34.332 9.731 L 34.026 9.664 C 33.855 9.617 33.616 9.558 33.501 9.521 C 33.234 9.435 33.225 9.53 33.425 10.189 C 33.606 10.809 34.15 11.439 34.752 11.716 C 35.209 11.926 35.22 11.945 34.952 11.955 C 34.8 11.964 34.57 11.955 34.456 11.945 C 33.778 11.897 34.914 13.3 35.745 13.549 C 35.955 13.615 36.193 13.663 36.288 13.663 C 36.575 13.663 36.298 13.891 35.64 14.207 C 34.895 14.57 34.284 14.723 33.511 14.723 C 33.177 14.731 32.9 14.751 32.9 14.771 C 32.9 14.799 33.215 14.961 33.597 15.143 C 37.902 17.175 42.741 14.683 43.646 9.96 C 43.724 9.569 43.781 9.072 43.781 8.853 C 43.781 8.49 43.837 8.394 44.362 7.85 C 44.687 7.526 44.926 7.24 44.898 7.211 C 44.878 7.192 44.754 7.202 44.63 7.25 C 44.506 7.297 44.229 7.364 44.028 7.402 L 43.656 7.478 L 43.962 7.22 C 44.219 7.001 44.639 6.352 44.639 6.171 C 44.639 6.142 44.478 6.2 44.287 6.305 C 44.086 6.4 43.751 6.533 43.533 6.6 C 43.17 6.705 43.122 6.695 42.72 6.428 C 42.034 5.961 41.279 5.827 40.545 6.037 Z" style="fill: url(#gradient-1);"/>
  <path d="M 17.815 22.832 C 17.13 23 16.577 23.318 16.081 23.826 C 15.565 24.332 15.293 24.811 15.095 25.58 C 14.919 26.245 14.889 30.932 15.058 31.718 C 15.368 33.153 16.503 34.288 17.937 34.597 C 18.237 34.663 19.455 34.7 20.984 34.7 C 23.692 34.7 24.181 34.644 25.004 34.222 C 25.52 33.96 26.234 33.229 26.514 32.665 C 26.918 31.879 26.973 31.316 26.936 28.373 C 26.908 25.795 26.888 25.626 26.692 25.111 C 26.28 24.107 25.557 23.384 24.508 22.953 C 24.03 22.766 23.843 22.748 21.142 22.729 C 19.081 22.718 18.153 22.748 17.815 22.832 Z M 24.292 24.08 C 24.892 24.398 25.257 24.745 25.53 25.269 L 25.783 25.748 L 25.812 28.522 C 25.839 31.175 25.83 31.316 25.634 31.841 C 25.371 32.553 24.808 33.116 24.096 33.379 C 23.571 33.575 23.43 33.584 20.777 33.557 L 18.003 33.529 L 17.505 33.247 C 16.953 32.947 16.653 32.629 16.334 32.038 C 16.137 31.663 16.126 31.569 16.126 28.7 L 16.126 25.748 L 16.399 25.26 C 16.755 24.614 17.073 24.332 17.73 24.05 C 18.284 23.826 18.303 23.826 21.096 23.845 C 23.787 23.872 23.927 23.882 24.292 24.08 Z" style="fill: url(#gradient-2);"/>
  <path d="M 20.046 25.869 C 19.023 26.234 18.377 26.918 18.077 27.942 C 17.805 28.897 18.115 30.079 18.846 30.81 C 19.988 31.944 21.92 31.944 23.065 30.81 C 24.199 29.665 24.199 27.734 23.065 26.591 C 22.296 25.832 21.012 25.522 20.046 25.869 Z M 21.771 27.049 C 22.812 27.538 23.13 28.887 22.419 29.853 C 22.184 30.173 21.396 30.575 21.003 30.575 C 20.271 30.575 19.652 30.181 19.315 29.507 C 18.826 28.532 19.184 27.511 20.157 27.049 C 20.75 26.769 21.161 26.769 21.771 27.049 Z" style="fill: url(#gradient-4);"/>
  <path d="M 33.632 22.897 C 33.014 23.281 32.808 23.955 33.127 24.583 C 33.595 25.529 34.841 25.566 35.394 24.658 C 36.059 23.562 34.729 22.232 33.632 22.897 Z" style="fill: url(#gradient-5);"/>
  <path d="M 32.958 30.578 L 32.958 34.7 L 34.316 34.7 L 35.675 34.7 L 35.675 30.578 L 35.675 26.456 L 34.316 26.456 L 32.958 26.456 L 32.958 30.578 Z" style="fill: url(#gradient-6);"/>
  <path d="M 36.705 30.578 L 36.705 34.7 L 38.063 34.7 L 39.422 34.7 L 39.422 32.395 L 39.422 30.091 L 39.965 29.557 C 40.855 28.676 41.473 28.489 41.96 28.976 L 42.232 29.248 L 42.232 31.974 L 42.232 34.7 L 43.59 34.7 L 44.958 34.7 L 44.93 31.534 C 44.902 28.461 44.892 28.367 44.686 27.983 C 44.171 27 43.347 26.512 42.232 26.503 C 41.632 26.503 41.436 26.55 40.921 26.794 C 40.583 26.953 40.115 27.29 39.871 27.534 L 39.422 27.974 L 39.422 27.215 L 39.422 26.456 L 38.063 26.456 L 36.705 26.456 L 36.705 30.578 Z" style="fill: url(#gradient-7);"/>
  <path d="M 23.687 24.894 C 23.362 25.096 23.254 25.45 23.421 25.78 C 23.667 26.277 24.322 26.296 24.612 25.819 C 24.961 25.244 24.263 24.545 23.687 24.894 Z" style="fill: url(#gradient-8);"/>
</svg>