<?xml version="1.0" encoding="utf-8"?>
<svg width="60px" height="40px" viewBox="0 0 60 40" version="1.1" xmlns="http://www.w3.org/2000/svg" xmlns:bx="https://vikasit.com">
  <defs>
    <linearGradient gradientUnits="userSpaceOnUse" x1="2373.948" y1="2302" x2="2373.948" y2="5118.823" id="gradient-0">
      <stop offset="0" style="stop-color: rgb(14, 92, 128)"/>
      <stop offset="1" style="stop-color: rgb(121, 192, 218) "/>
    </linearGradient>
    <linearGradient gradientUnits="userSpaceOnUse" x1="455" y1="2110" x2="455" y2="3910" id="gradient-1">
      <stop offset="0" style="stop-color: rgb(14, 92, 128)"/>
      <stop offset="1" style="stop-color: rgb(121, 192, 218) "/>
    </linearGradient>
    <linearGradient gradientUnits="userSpaceOnUse" x1="2745.833" y1="0.677" x2="2745.833" y2="3006.697" id="gradient-2">
      <stop offset="0" style="stop-color: rgb(14, 92, 128)"/>
      <stop offset="1" style="stop-color: rgb(121, 192, 218) "/>
    </linearGradient>
    <linearGradient gradientUnits="userSpaceOnUse" x1="4665" y1="1210" x2="4665" y2="3010" id="gradient-3">
      <stop offset="0" style="stop-color: rgb(14, 92, 128)"/>
      <stop offset="1" style="stop-color: rgb(121, 192, 218) "/>
    </linearGradient>
    <linearGradient gradientUnits="userSpaceOnUse" x1="2562.232" y1="5.168" x2="2562.232" y2="5114.852" id="gradient-4">
      <stop offset="0" style="stop-color: rgb(14, 92, 128)"/>
      <stop offset="1" style="stop-color: rgb(121, 192, 218) "/>
    </linearGradient>
    <linearGradient gradientUnits="userSpaceOnUse" x1="1247.389" y1="1335.971" x2="1247.389" y2="1900.865" id="gradient-5">
      <stop offset="0" style="stop-color: rgb(14, 92, 128)"/>
      <stop offset="1" style="stop-color: rgb(121, 192, 218) "/>
    </linearGradient>
    <linearGradient gradientUnits="userSpaceOnUse" x1="2329.802" y1="1335.516" x2="2329.802" y2="1898.857" id="gradient-6">
      <stop offset="0" style="stop-color: rgb(14, 92, 128)"/>
      <stop offset="1" style="stop-color: rgb(121, 192, 218) "/>
    </linearGradient>
    <linearGradient gradientUnits="userSpaceOnUse" x1="1787.857" y1="980" x2="1787.857" y2="1130" id="gradient-7">
      <stop offset="0" style="stop-color: rgb(14, 92, 128)"/>
      <stop offset="1" style="stop-color: rgb(121, 192, 218) "/>
    </linearGradient>
    <linearGradient gradientUnits="userSpaceOnUse" x1="917.852" y1="3510.99" x2="917.852" y2="4076.204" id="gradient-8">
      <stop offset="0" style="stop-color: rgb(14, 92, 128)"/>
      <stop offset="1" style="stop-color: rgb(121, 192, 218) "/>
    </linearGradient>
    <linearGradient gradientUnits="userSpaceOnUse" x1="1991.458" y1="3512.406" x2="1991.458" y2="4075.518" id="gradient-9">
      <stop offset="0" style="stop-color: rgb(14, 92, 128)"/>
      <stop offset="1" style="stop-color: rgb(121, 192, 218) "/>
    </linearGradient>
    <linearGradient gradientUnits="userSpaceOnUse" x1="1454.809" y1="3019.365" x2="1454.809" y2="3367.878" id="gradient-10">
      <stop offset="0" style="stop-color: rgb(14, 92, 128)"/>
      <stop offset="1" style="stop-color: rgb(121, 192, 218) "/>
    </linearGradient>
    <linearGradient gradientUnits="userSpaceOnUse" x1="3137.118" y1="2686.977" x2="3137.118" y2="3239.232" id="gradient-11">
      <stop offset="0" style="stop-color: rgb(14, 92, 128)"/>
      <stop offset="1" style="stop-color: rgb(121, 192, 218) "/>
    </linearGradient>
    <linearGradient gradientUnits="userSpaceOnUse" x1="4189.672" y1="2687" x2="4189.672" y2="3237.976" id="gradient-12">
      <stop offset="0" style="stop-color: rgb(14, 92, 128)"/>
      <stop offset="1" style="stop-color: rgb(121, 192, 218) "/>
    </linearGradient>
    <linearGradient gradientUnits="userSpaceOnUse" x1="3661.691" y1="1976.959" x2="3661.691" y2="2486.177" id="gradient-13">
      <stop offset="0" style="stop-color: rgb(14, 92, 128)"/>
      <stop offset="1" style="stop-color: rgb(121, 192, 218) "/>
    </linearGradient>
  </defs>
  <title>icons/editor/element-text</title>
  <g transform="matrix(0.003929, 0, 0, -0.003929, 5.92, 30.188337)" fill="#000000" stroke="none" style="">
    <path d="M1888 5099 c-23 -12 -46 -35 -58 -59 -18 -36 -20 -58 -20 -288 0 -266 -7 -330 -47 -432 -81 -204 -266 -362 -458 -392 -39 -6 -76 -12 -82 -14 -10 -3 -13 -162 -13 -754 l0 -750 51 0 c38 0 58 -6 82 -24 18 -13 55 -37 83 -54 l51 -30 98 247 c133 333 157 385 220 466 102 133 242 224 425 277 34 10 150 13 465 13 453 0 497 -4 703 -60 48 -14 90 -21 93 -17 4 4 17 34 29 67 43 117 36 266 -19 374 -30 58 -116 146 -175 180 -91 52 -146 61 -388 61 l-218 0 0 265 c0 204 -4 284 -16 343 -61 294 -292 525 -586 586 -103 21 -174 20 -220 -5z" style="fill: url(#gradient-0);"/>
    <path d="M78 3889 c-23 -12 -46 -35 -58 -59 -20 -38 -20 -58 -20 -820 0 -763 0 -782 20 -820 13 -26 34 -47 60 -60 37 -19 58 -20 435 -20 l395 0 0 900 0 900 -397 0 c-376 -1 -400 -2 -435 -21z" style="fill: url(#gradient-1);"/>
    <path d="M2279 2996 c-62 -18 -130 -53 -175 -89 -87 -72 -103 -104 -314 -631 -180 -452 -202 -513 -207 -578 -17 -226 130 -427 348 -477 24 -6 142 -11 262 -11 l217 0 0 -265 c0 -204 4 -284 16 -343 61 -293 293 -525 586 -586 105 -22 170 -20 218 4 72 37 74 48 80 375 6 285 6 291 34 370 37 107 87 187 167 265 83 83 202 146 304 162 39 6 76 12 83 14 9 3 12 162 12 754 l0 750 -48 0 c-40 0 -58 7 -116 46 -153 103 -351 185 -545 226 -85 18 -139 21 -486 24 -301 2 -401 0 -436 -10z" style="fill: url(#gradient-2);"/>
    <path d="M4210 2110 l0 -900 395 0 c377 0 398 1 435 20 26 13 47 34 60 60 20 38 20 57 20 820 0 763 0 782 -20 820 -13 26 -34 47 -60 60 -37 19 -58 20 -435 20 l-395 0 0 -900z" style="fill: url(#gradient-3);"/>
  </g>
  <g transform="matrix(0.004187, 0, 0, -0.004187, 32.570988, 32.07584)" fill="#000000" stroke="none" style="">
    <path d="M1320 5110 c-645 -67 -1154 -525 -1292 -1163 -18 -84 -22 -134 -22 -287 0 -206 17 -311 75 -477 53 -148 169 -362 209 -383 50 -26 110 7 110 60 0 17 -17 55 -41 92 -85 132 -151 293 -186 458 -25 118 -25 382 0 500 87 408 336 734 705 919 298 150 651 177 975 75 331 -105 614 -348 771 -662 36 -72 106 -266 106 -293 0 -8 -47 -62 -104 -121 -242 -248 -384 -556 -412 -896 l-7 -79 -42 13 c-24 7 -89 20 -145 29 -126 22 -413 16 -530 -10 -223 -49 -459 -163 -628 -304 l-62 -52 -63 42 c-34 23 -88 64 -120 91 -71 58 -113 64 -146 22 -12 -15 -21 -36 -21 -47 0 -26 85 -110 171 -167 35 -24 66 -44 68 -46 2 -2 -24 -39 -57 -84 -144 -191 -236 -400 -279 -633 -23 -125 -23 -370 1 -497 20 -115 82 -302 129 -396 330 -653 1085 -965 1772 -732 210 71 396 188 560 353 247 246 396 564 421 899 6 80 9 86 26 80 140 -44 410 -65 574 -44 182 22 418 96 457 141 24 29 21 71 -6 97 -31 29 -58 28 -142 -6 -274 -112 -608 -121 -893 -26 -381 127 -703 450 -827 829 -40 123 -57 222 -62 365 -8 227 36 428 137 630 154 305 428 543 748 650 153 51 241 65 417 65 230 0 404 -42 598 -142 566 -292 839 -958 641 -1563 -80 -246 -212 -434 -442 -631 -33 -28 -42 -43 -42 -68 0 -40 31 -71 72 -71 88 0 360 296 469 511 174 345 205 741 87 1108 -173 542 -647 932 -1218 1001 -295 35 -622 -31 -881 -180 l-84 -48 -31 92 c-43 124 -65 173 -128 280 -212 358 -568 606 -979 685 -125 24 -293 32 -407 21z m670 -2360 c36 -6 100 -20 143 -32 62 -16 78 -24 81 -42 2 -11 12 -66 21 -121 19 -120 69 -274 124 -382 140 -279 394 -533 665 -665 l69 -33 -6 -110 c-8 -152 -50 -314 -121 -461 -73 -152 -142 -249 -256 -364 -327 -329 -793 -458 -1244 -344 -362 91 -675 343 -843 679 -98 194 -136 360 -136 585 0 234 39 398 145 601 184 355 533 612 924 683 94 17 342 20 434 6z" style="fill: url(#gradient-4);"/>
    <path d="M1189 1884 c-113 -71 -146 -330 -59 -467 36 -57 73 -82 121 -81 54 2 93 35 131 112 31 62 33 73 32 167 0 124 -25 195 -84 249 -45 41 -95 48 -141 20z" style="fill: url(#gradient-5);"/>
    <path d="M2259 1877 c-20 -13 -46 -47 -64 -82 -28 -55 -30 -65 -30 -174 0 -100 3 -123 23 -166 59 -129 154 -156 236 -69 90 97 95 338 9 452 -48 63 -115 79 -174 39z" style="fill: url(#gradient-6);"/>
    <path d="M1122 1107 c-29 -31 -28 -72 3 -102 l24 -25 630 0 c447 0 637 3 655 11 51 23 55 103 7 128 -13 8 -227 11 -659 11 l-639 0 -21 -23z" style="fill: url(#gradient-7);"/>
    <path d="M870 4063 c-19 -10 -49 -39 -67 -66 -82 -123 -65 -361 33 -447 63 -55 116 -52 175 10 53 56 74 124 74 241 -1 88 -4 102 -33 162 -50 100 -113 135 -182 100z" style="fill: url(#gradient-8);"/>
    <path d="M1940 4062 c-83 -45 -135 -200 -112 -335 32 -185 151 -270 248 -176 97 94 114 328 32 449 -48 70 -110 93 -168 62z" style="fill: url(#gradient-9);"/>
    <path d="M1335 3355 c-97 -17 -208 -66 -287 -125 -116 -88 -143 -139 -98 -188 35 -38 72 -29 147 35 220 186 512 184 725 -6 63 -57 103 -66 138 -31 50 50 7 120 -126 209 -86 58 -161 88 -264 107 -91 16 -143 16 -235 -1z" style="fill: url(#gradient-10);"/>
    <path d="M3083 3220 c-107 -65 -144 -276 -74 -426 44 -95 106 -128 176 -94 75 37 116 131 116 265 0 124 -48 232 -116 261 -46 19 -64 18 -102 -6z" style="fill: url(#gradient-11);"/>
    <path d="M4129 3217 c-74 -50 -121 -200 -100 -320 23 -129 85 -210 161 -210 156 0 225 329 103 491 -47 63 -107 77 -164 39z" style="fill: url(#gradient-12);"/>
    <path d="M3090 2477 c-14 -7 -31 -25 -39 -41 -12 -26 -10 -34 24 -104 53 -106 170 -223 280 -279 105 -54 189 -75 300 -76 120 -1 191 16 304 70 75 36 108 59 171 121 127 126 181 251 130 297 -24 21 -72 24 -95 5 -8 -7 -29 -39 -47 -72 -90 -169 -261 -272 -453 -272 -193 0 -374 110 -460 280 -38 75 -69 94 -115 71z" style="fill: url(#gradient-13);"/>
  </g>
</svg>
