<?xml version="1.0" encoding="utf-8"?>
<svg width="60px" height="40px" viewBox="0 0 60 40" version="1.1" xmlns="http://www.w3.org/2000/svg" xmlns:bx="https://boxy-svg.com">
  <defs>
    <bx:guide x="25.156" y="3.967" angle="90"/>
    <bx:guide x="14.997" y="11.468" angle="0"/>
    <bx:guide x="44.997" y="10.616" angle="0"/>
    <bx:guide x="26.798" y="20.03" angle="90"/>
    <bx:guide x="44.742" y="25.004" angle="0"/>
    <bx:guide x="15.257" y="24.878" angle="0"/>
    <bx:guide x="44.107" y="29.27" angle="0"/>
    <linearGradient gradientUnits="userSpaceOnUse" x1="29.997" y1="3.986" x2="29.997" y2="36" id="gradient-0">
      <stop offset="0" style="stop-color: rgb(121, 192, 218);"/>
      <stop offset="1" style="stop-color: rgb(14, 92, 128);"/>
    </linearGradient>
    <linearGradient gradientUnits="userSpaceOnUse" x1="29.423" y1="6.86" x2="29.423" y2="9.86" id="gradient-1" gradientTransform="matrix(1.666529, 0, 0, 1.666529, -19.451732, -5.036894)">
      <stop offset="0" style="stop-color: rgb(121, 192, 218);"/>
      <stop offset="1" style="stop-color: rgb(121, 192, 218);"/>
    </linearGradient>
    <linearGradient gradientUnits="userSpaceOnUse" x1="30.079" y1="8.287" x2="30.079" y2="16.464" id="gradient-2" gradientTransform="matrix(1, 0, 0, 1, 0, 1)">
      <stop offset="0" style="stop-color: rgb(121, 192, 218);"/>
      <stop offset="1" style="stop-color: rgb(14, 92, 128);"/>
    </linearGradient>
  </defs>
  <title>icons/editor/element-style-1</title>
  <g id="icons/editor/element-style-1" stroke="none" stroke-width="1" fill="none" fill-rule="evenodd">
    <path style="fill: none; paint-order: stroke; stroke-width: 1.5px; stroke: url(#gradient-2);" d="M 15.947 15.17 L 23.022 9.287 L 33.324 17.464 L 29.793 14.625 L 35.16 9.912 L 44.211 16.919"/>
    <path d="M 44.107 34 C 44.609 34 44.742 34.448 44.742 35 C 44.742 35.513 44.559 35.936 44.107 35.993 L 34.091 36 L 15.909 36 C 15.407 36 15.257 35.552 15.257 35 C 15.257 34.487 15.351 34.064 15.803 34.007 L 15.909 34 L 44.107 34 Z M 44.118 29 C 44.605 29 44.742 29.448 44.742 30 C 44.742 30.513 44.659 30.936 44.221 30.993 L 44.118 31 L 15.882 31 C 15.395 31 15.257 30.552 15.257 30 C 15.257 29.487 15.341 29.064 15.779 29.007 L 15.882 29 L 44.118 29 Z M 44.118 24 C 44.605 24 44.742 24.448 44.742 25 C 44.742 25.513 44.659 25.936 44.221 25.993 L 44.118 26 L 15.882 26 C 15.395 26 15.257 25.552 15.257 25 C 15.257 24.487 15.341 24.064 15.779 24.007 L 15.882 24 L 44.118 24 Z M 44.454 3.986 C 45.006 3.986 44.997 3.967 44.997 4.519 C 44.963 4.519 44.984 19.463 44.997 19.463 C 44.997 20.015 44.996 20.03 44.444 20.03 L 15.555 20.03 C 15.003 20.03 14.997 20.015 14.997 19.463 L 14.997 4.528 C 14.997 3.975 15.004 3.986 15.556 3.986 L 44.454 3.986 Z M 43.5 5.5 L 16.5 5.5 L 16.5 18.5 L 43.5 18.5 L 43.5 5.5 Z" id="Combined-Shape" style="fill: url(#gradient-0);"/>
    <path style="fill: none; stroke-width: 1.5px; stroke: url(#gradient-1);" d="M 29.599 11.385 C 30.688 11.389 31.538 10.726 31.897 9.849 C 32.173 9.175 32.159 8.375 31.744 7.65 C 30.784 5.976 28.384 5.976 27.419 7.65 C 26.533 9.19 27.489 11.15 29.249 11.385 C 29.439 11.38 29.509 11.41 29.599 11.385 Z"/>
  </g>
</svg>