<?xml version="1.0" encoding="utf-8"?>
<svg width="60px" height="40px" viewBox="0 0 60 40" version="1.1" xmlns="http://www.w3.org/2000/svg" xmlns:bx="https://vikasit.com">
  <defs>
    <linearGradient gradientUnits="userSpaceOnUse" x1="30.342" y1="8.012" x2="30.342" y2="31.999" id="gradient-1" spreadMethod="repeat">
      <stop offset="0" style="stop-color: rgb(121, 192, 218);"/>
      <stop offset="1" style="stop-color: rgb(14, 92, 128);"/>
    </linearGradient>
  </defs>
  <title>icons/editor/element-style-2</title>
  <g id="icons/editor/element-style-2" stroke="none" stroke-width="1" fill="none" fill-rule="evenodd">
    <path d="M 29.458 8.012 C 30.001 8.012 30.001 8.012 30.001 8.592 L 30.001 31.45 C 30.001 32.002 29.994 31.999 29.442 31.999 L 6.559 31.999 C 6.007 31.999 6.006 31.986 6.006 31.434 L 6.006 8.575 C 6.006 8.023 6.006 8.012 6.558 8.012 L 29.458 8.012 Z M 28.5 9.5 L 7.5 9.5 L 7.5 30.5 L 28.5 30.5 L 28.5 9.5 Z M 54.003 27 C 54.555 27 54.678 27.423 54.678 27.975 C 54.678 28.527 54.555 29 54.003 29 L 35 29 C 34.448 29 34.253 28.56 34.253 28.008 C 34.253 27.456 34.448 27 35 27 L 54.003 27 Z M 54 22 C 54.552 22 54.678 22.448 54.678 23 C 54.678 23.552 54.552 24 54 24 L 35 24 C 34.448 24 34.253 23.552 34.253 23 C 34.253 22.448 34.448 22 35 22 L 54 22 Z M 54 17 C 54.552 17 54.678 17.448 54.678 18 C 54.678 18.552 54.552 19 54 19 L 35 19 C 34.448 19 34.253 18.544 34.253 17.992 C 34.253 17.44 34.448 17 35 17 L 54 17 Z M 54 12 C 54.552 12 54.678 12.439 54.678 12.991 C 54.678 13.543 54.552 14 54 14 L 35 14 C 34.448 14 34.261 13.543 34.261 12.991 C 34.261 12.439 34.448 12 35 12 L 54 12 Z" id="Combined-Shape" style="stroke-linecap: round; fill: url(#gradient-1); paint-order: fill; fill-rule: evenodd; filter: none;"/>
  </g>
</svg>